<svg width="25" height="24" viewBox="0 0 25 24" fill="none" xmlns="http://www.w3.org/2000/svg">
<path d="M12.8874 7.9983C10.684 7.9983 8.88577 9.79651 8.88577 12C8.88577 14.2035 10.684 16.0017 12.8874 16.0017C15.0908 16.0017 16.889 14.2035 16.889 12C16.889 9.79651 15.0908 7.9983 12.8874 7.9983ZM24.8893 12C24.8893 10.3429 24.9043 8.70077 24.8112 7.04665C24.7182 5.12536 24.2799 3.4202 22.875 2.01525C21.467 0.607302 19.7649 0.172008 17.8437 0.0789456C16.1866 -0.0141173 14.5445 0.000892936 12.8904 0.000892936C11.2333 0.000892936 9.59123 -0.0141173 7.93715 0.0789456C6.01589 0.172008 4.31076 0.610305 2.90584 2.01525C1.49792 3.42321 1.06263 5.12536 0.969569 7.04665C0.876508 8.70377 0.891518 10.3459 0.891518 12C0.891518 13.6541 0.876508 15.2992 0.969569 16.9533C1.06263 18.8746 1.50092 20.5798 2.90584 21.9847C4.31377 23.3927 6.01589 23.828 7.93715 23.9211C9.59424 24.0141 11.2363 23.9991 12.8904 23.9991C14.5475 23.9991 16.1896 24.0141 17.8437 23.9211C19.7649 23.828 21.47 23.3897 22.875 21.9847C24.2829 20.5768 24.7182 18.8746 24.8112 16.9533C24.9073 15.2992 24.8893 13.6571 24.8893 12ZM12.8874 18.1572C9.48016 18.1572 6.73035 15.4073 6.73035 12C6.73035 8.5927 9.48016 5.84284 12.8874 5.84284C16.2946 5.84284 19.0444 8.5927 19.0444 12C19.0444 15.4073 16.2946 18.1572 12.8874 18.1572ZM19.2966 7.02864C18.5011 7.02864 17.8587 6.38621 17.8587 5.59067C17.8587 4.79513 18.5011 4.1527 19.2966 4.1527C20.0921 4.1527 20.7346 4.79513 20.7346 5.59067C20.7348 5.77957 20.6978 5.96667 20.6256 6.14124C20.5534 6.31581 20.4475 6.47442 20.3139 6.608C20.1803 6.74157 20.0217 6.84748 19.8472 6.91967C19.6726 6.99185 19.4855 7.02888 19.2966 7.02864Z" fill="#0075FF"/>
</svg>
