<svg width="25" height="24" viewBox="0 0 25 24" fill="none" xmlns="http://www.w3.org/2000/svg">
	<path
		d="M6.25975 24V7.94631H1.26646V24H6.25975ZM3.73626 5.79866C5.347 5.79866 6.63559 4.45638 6.63559 2.84564C6.63559 1.28859 5.347 0 3.73626 0C2.17922 0 0.890625 1.28859 0.890625 2.84564C0.890625 4.45638 2.17922 5.79866 3.73626 5.79866ZM24.8906 24H24.9443V15.1946C24.9443 10.8993 23.9779 7.57047 18.9309 7.57047C16.5148 7.57047 14.904 8.91275 14.2061 10.1477H14.1524V7.94631H9.37385V24H14.3671V16.0537C14.3671 13.9597 14.743 11.9732 17.3202 11.9732C19.8973 11.9732 19.951 14.3356 19.951 16.2148V24H24.8906Z"
		fill="#0075FF"/>
</svg>
