<svg width="520" height="129" viewBox="0 0 520 129" fill="none" xmlns="http://www.w3.org/2000/svg">
<path d="M118.134 27.7695C116.926 26.562 115.517 25.9583 113.706 25.9583H92.5748L100.021 18.512C102.436 16.0969 102.436 12.2732 100.021 9.85814C97.6061 7.44312 93.581 7.44312 91.3673 9.85814L73.2546 27.9708C72.0471 29.1783 71.4434 30.7883 71.4434 32.3983C71.4434 34.0083 72.0471 35.6183 73.2546 36.8258C73.8584 37.4296 74.4621 37.8321 75.2671 38.2346C76.0721 38.6371 76.8771 38.6371 77.6822 38.6371L113.706 38.4359C117.127 38.4359 119.945 35.6183 119.945 32.1971C119.945 30.3858 119.341 28.977 118.134 27.7695Z" fill="#0075FF"/>
<path d="M125.983 72.2452L110.889 57.3526H121.555C124.977 57.3526 127.794 54.5351 127.794 51.1138C127.794 47.6925 124.977 44.875 121.555 44.875H96.1978C92.7765 44.875 89.959 47.6925 89.959 51.1138C89.959 51.9188 90.1602 52.5226 90.3615 53.1263C90.5627 53.9313 91.1665 54.7363 91.7702 55.5413L117.329 80.899C118.537 82.1065 119.945 82.7103 121.757 82.7103C123.367 82.7103 124.977 82.1065 126.184 80.899C127.392 79.6915 127.996 78.0815 127.996 76.4715C127.996 75.0627 127.19 73.4527 125.983 72.2452Z" fill="#0075FF"/>
<path d="M118.132 91.3652L100.02 73.2526C99.0134 72.2463 97.6047 71.6426 96.1959 71.6426C95.9947 71.6426 95.7934 71.6426 95.5922 71.6426C95.1897 71.6426 94.9884 71.6426 94.7871 71.6426H94.5859C94.3846 71.6426 94.1834 71.6426 93.9821 71.8438C93.7809 71.8438 93.5796 72.0451 93.3784 72.0451C92.7746 72.2463 91.9696 72.6488 91.5671 73.2526C91.1646 73.6551 90.7621 74.2588 90.3596 74.8626C89.9571 75.6676 89.7559 76.6739 89.7559 77.6801L89.9571 113.704C89.9571 117.125 92.7746 119.943 96.1959 119.943C99.6172 119.943 102.435 117.125 102.435 113.704V92.5727L109.881 100.019C111.089 101.227 112.699 101.83 114.309 101.83C115.919 101.83 117.529 101.227 118.736 100.019C119.944 98.8115 120.547 97.2015 120.547 95.5915C119.944 94.1827 119.34 92.5727 118.132 91.3652Z" fill="#0075FF"/>
<path d="M76.6805 89.9648C76.0767 89.9648 75.6742 89.9648 75.0705 90.1661C74.0642 90.3674 73.0579 90.9711 72.2529 91.7761L46.8952 117.335C45.6877 118.543 45.084 120.153 45.084 121.763C45.084 123.373 45.6877 124.983 46.8952 126.19C48.1028 127.398 49.5115 128.001 51.3228 128.001C52.9328 128.001 54.5428 127.398 55.7503 126.19L70.6429 111.096V121.763C70.6429 125.184 73.4604 128.001 76.8817 128.001C80.303 128.001 83.1205 125.184 83.1205 121.763V96.2036C82.9193 92.7824 80.1017 89.9648 76.6805 89.9648Z" fill="#0075FF"/>
<path d="M54.538 91.3699C53.9342 90.7661 53.1292 90.3636 52.5255 89.9611C51.7205 89.5586 50.9155 89.5586 50.1105 89.5586H14.0865C10.6652 89.5586 7.84766 92.3761 7.84766 95.7974C7.84766 97.4074 8.45141 99.0174 9.65892 100.225C10.8664 101.432 12.4764 102.036 14.0865 102.036H35.2179L27.7716 109.482C25.3565 111.898 25.3565 115.721 27.7716 118.136C28.9791 119.344 30.5891 119.948 32.1991 119.948C33.8091 119.948 35.4191 119.344 36.6266 118.136L54.7393 100.024C55.9468 98.8162 56.5505 97.2062 56.5505 95.5961C56.3493 94.1874 55.7455 92.5774 54.538 91.3699Z" fill="#0075FF"/>
<path d="M37.634 74.668C37.4328 73.8629 36.829 73.0579 36.2253 72.4542L10.4651 46.8952C9.45882 45.6877 7.84881 45.084 6.2388 45.084C4.62878 45.084 3.01877 45.6877 1.81126 46.8952C-0.603754 49.3103 -0.603754 53.3353 1.81126 55.5491L16.9051 70.4417H6.2388C2.81752 70.6429 1.19955e-07 73.2592 1.19955e-07 76.6805C1.19955e-07 80.1017 2.81752 82.9193 6.2388 82.9193H31.7977C35.219 82.9193 38.0365 80.1017 38.0365 76.6805C38.0365 76.0767 37.8353 75.2717 37.634 74.668Z" fill="#0075FF"/>
<path d="M38.4378 50.1105L38.2365 14.0865C38.2365 10.6652 35.419 7.84766 31.9978 7.84766C28.5765 7.84766 25.759 10.6652 25.759 14.0865V35.2179L18.3127 27.7716C15.8976 25.3565 12.0739 25.3565 9.65884 27.7716C8.65258 28.9791 8.04883 30.5891 8.04883 32.1991C8.04883 33.8091 8.65258 35.4191 9.86009 36.6266L27.9727 54.7393C29.1802 55.9468 30.7902 56.5505 32.4003 56.5505C34.0103 56.5505 35.6203 55.9468 36.8278 54.7393C37.2303 54.3367 37.6328 53.733 38.0353 53.1292C38.2365 52.123 38.4378 51.1167 38.4378 50.1105Z" fill="#0075FF"/>
<path d="M81.108 1.81126C78.693 -0.603754 74.8692 -0.603754 72.4542 1.81126L57.3603 16.9051V6.2388C57.3603 2.81752 54.5428 1.19955e-07 51.1215 1.19955e-07C47.7003 1.19955e-07 45.084 2.81752 45.084 6.2388V31.7977C45.084 35.219 47.9015 38.0365 51.3228 38.0365C51.9265 38.0365 52.5303 37.8353 52.9328 37.8353C53.939 37.634 54.9453 37.0303 55.7503 36.2253L81.108 10.6663C83.523 8.25131 83.523 4.22628 81.108 1.81126Z" fill="#0075FF"/>
<path d="M118.134 27.7695C116.926 26.562 115.517 25.9583 113.706 25.9583H92.5748L100.021 18.512C102.436 16.0969 102.436 12.2732 100.021 9.85814C97.6061 7.44312 93.581 7.44312 91.3673 9.85814L73.2546 27.9708C72.0471 29.1783 71.4434 30.7883 71.4434 32.3983C71.4434 34.0083 72.0471 35.6183 73.2546 36.8258C73.8584 37.4296 74.4621 37.8321 75.2671 38.2346C76.0721 38.6371 76.8771 38.6371 77.6822 38.6371L113.706 38.4359C117.127 38.4359 119.945 35.6183 119.945 32.1971C119.945 30.3858 119.341 28.977 118.134 27.7695Z" fill="#0075FF"/>
<path d="M125.983 72.2452L110.889 57.3526H121.555C124.977 57.3526 127.794 54.5351 127.794 51.1138C127.794 47.6925 124.977 44.875 121.555 44.875H96.1978C92.7765 44.875 89.959 47.6925 89.959 51.1138C89.959 51.9188 90.1602 52.5226 90.3615 53.1263C90.5627 53.9313 91.1665 54.7363 91.7702 55.5413L117.329 80.899C118.537 82.1065 119.945 82.7103 121.757 82.7103C123.367 82.7103 124.977 82.1065 126.184 80.899C127.392 79.6915 127.996 78.0815 127.996 76.4715C127.996 75.0627 127.19 73.4527 125.983 72.2452Z" fill="#0075FF"/>
<circle cx="63.9994" cy="63.9994" r="14.222" fill="#FF8F33"/>
<path d="M118.132 91.3652L100.02 73.2526C99.0134 72.2463 97.6047 71.6426 96.1959 71.6426C95.9947 71.6426 95.7934 71.6426 95.5922 71.6426C95.1897 71.6426 94.9884 71.6426 94.7871 71.6426H94.5859C94.3846 71.6426 94.1834 71.6426 93.9821 71.8438C93.7809 71.8438 93.5796 72.0451 93.3784 72.0451C92.7746 72.2463 91.9696 72.6488 91.5671 73.2526C91.1646 73.6551 90.7621 74.2588 90.3596 74.8626C89.9571 75.6676 89.7559 76.6739 89.7559 77.6801L89.9571 113.704C89.9571 117.125 92.7746 119.943 96.1959 119.943C99.6172 119.943 102.435 117.125 102.435 113.704V92.5727L109.881 100.019C111.089 101.227 112.699 101.83 114.309 101.83C115.919 101.83 117.529 101.227 118.736 100.019C119.944 98.8115 120.547 97.2015 120.547 95.5915C119.944 94.1827 119.34 92.5727 118.132 91.3652Z" fill="#0075FF"/>
<path d="M76.6805 89.959C76.0767 89.959 75.6742 89.959 75.0705 90.1602C74.0642 90.3615 73.0579 90.9652 72.2529 91.7703L46.8952 117.329C45.6877 118.537 45.084 120.147 45.084 121.757C45.084 123.367 45.6877 124.977 46.8952 126.184C48.1028 127.392 49.5115 127.996 51.3228 127.996C52.9328 127.996 54.5428 127.392 55.7503 126.184L70.6429 111.09V121.757C70.6429 125.178 73.4604 127.996 76.8817 127.996C80.303 127.996 83.1205 125.178 83.1205 121.757V96.1978C82.9193 92.7765 80.1017 89.959 76.6805 89.959Z" fill="#0075FF"/>
<path d="M54.538 91.3699C53.9342 90.7661 53.1292 90.3636 52.5255 89.9611C51.7205 89.5586 50.9155 89.5586 50.1105 89.5586H14.0865C10.6652 89.5586 7.84766 92.3761 7.84766 95.7974C7.84766 97.4074 8.45141 99.0174 9.65892 100.225C10.8664 101.432 12.4764 102.036 14.0865 102.036H35.2179L27.7716 109.482C25.3565 111.898 25.3565 115.721 27.7716 118.136C28.9791 119.344 30.5891 119.948 32.1991 119.948C33.8091 119.948 35.4191 119.344 36.6266 118.136L54.7393 100.024C55.9468 98.8162 56.5505 97.2062 56.5505 95.5961C56.3493 94.1874 55.7455 92.5774 54.538 91.3699Z" fill="#0075FF"/>
<path d="M37.634 74.668C37.4328 73.8629 36.829 73.0579 36.2253 72.4542L10.4651 46.8952C9.45882 45.6877 7.84881 45.084 6.2388 45.084C4.62878 45.084 3.01877 45.6877 1.81126 46.8952C-0.603754 49.3103 -0.603754 53.3353 1.81126 55.5491L16.9051 70.4417H6.2388C2.81752 70.6429 1.19955e-07 73.2592 1.19955e-07 76.6805C1.19955e-07 80.1017 2.81752 82.9193 6.2388 82.9193H31.7977C35.219 82.9193 38.0365 80.1017 38.0365 76.6805C38.0365 76.0767 37.8353 75.2717 37.634 74.668Z" fill="#0075FF"/>
<path d="M38.4378 50.1105L38.2365 14.0865C38.2365 10.6652 35.419 7.84766 31.9978 7.84766C28.5765 7.84766 25.759 10.6652 25.759 14.0865V35.2179L18.3127 27.7716C15.8976 25.3565 12.0739 25.3565 9.65884 27.7716C8.65258 28.9791 8.04883 30.5891 8.04883 32.1991C8.04883 33.8091 8.65258 35.4191 9.86009 36.6266L27.9727 54.7393C29.1802 55.9468 30.7902 56.5505 32.4003 56.5505C34.0103 56.5505 35.6203 55.9468 36.8278 54.7393C37.2303 54.3367 37.6328 53.733 38.0353 53.1292C38.2365 52.123 38.4378 51.1167 38.4378 50.1105Z" fill="#0075FF"/>
<path d="M81.108 1.81126C78.693 -0.603754 74.8692 -0.603754 72.4542 1.81126L57.3603 16.9051V6.2388C57.3603 2.81752 54.5428 1.19955e-07 51.1215 1.19955e-07C47.7003 1.19955e-07 45.084 2.81752 45.084 6.2388V31.7977C45.084 35.219 47.9015 38.0365 51.3228 38.0365C51.9265 38.0365 52.5303 37.8353 52.9328 37.8353C53.939 37.634 54.9453 37.0303 55.7503 36.2253L81.108 10.6663C83.523 8.25131 83.523 4.22628 81.108 1.81126Z" fill="#0075FF"/>
<path d="M170.66 46.5783V11.7344H181.014L190.471 42.9943H191.268V11.7344H196.594V46.5783H186.24L176.783 15.2685H175.986V46.5783H170.66Z" fill="#071634"/>
<path d="M215.26 47.2752C212.771 47.2752 210.598 46.7608 208.739 45.7321C206.881 44.6702 205.421 43.1935 204.359 41.3019C203.33 39.3772 202.816 37.1538 202.816 34.6318V34.0345C202.816 31.4793 203.33 29.2559 204.359 27.3644C205.388 25.4396 206.814 23.9629 208.64 22.9342C210.498 21.8723 212.638 21.3413 215.061 21.3413C217.417 21.3413 219.474 21.8723 221.233 22.9342C223.025 23.9629 224.419 25.4065 225.414 27.2648C226.41 29.1231 226.908 31.2967 226.908 33.7856V35.7269H208.042C208.109 37.8839 208.822 39.6095 210.183 40.9037C211.576 42.1647 213.302 42.7952 215.36 42.7952C217.284 42.7952 218.728 42.3638 219.69 41.501C220.686 40.6382 221.449 39.6427 221.98 38.5144L226.211 40.7046C225.746 41.6338 225.066 42.6127 224.17 43.6414C223.307 44.6702 222.162 45.533 220.735 46.2299C219.309 46.9267 217.483 47.2752 215.26 47.2752ZM208.092 31.7945H221.681C221.548 29.9362 220.885 28.4926 219.69 27.4639C218.495 26.402 216.936 25.871 215.011 25.871C213.086 25.871 211.51 26.402 210.282 27.4639C209.088 28.4926 208.358 29.9362 208.092 31.7945Z" fill="#071634"/>
<path d="M231.885 34.4327V33.686C231.885 31.0976 232.399 28.8909 233.428 27.0657C234.49 25.2405 235.883 23.8302 237.609 22.8347C239.335 21.8391 241.226 21.3413 243.284 21.3413C245.673 21.3413 247.498 21.7893 248.759 22.6853C250.053 23.5813 250.999 24.5437 251.596 25.5724H252.393V22.0382H257.371V51.6058C257.371 53.0991 256.923 54.2937 256.027 55.1897C255.164 56.0857 253.969 56.5337 252.443 56.5337H235.917V52.0538H250.85C251.812 52.0538 252.293 51.556 252.293 50.5604V42.7455H251.497C251.132 43.3428 250.617 43.9567 249.954 44.5872C249.29 45.2177 248.411 45.7321 247.316 46.1303C246.254 46.5285 244.91 46.7276 243.284 46.7276C241.226 46.7276 239.318 46.2464 237.559 45.2841C235.834 44.2885 234.457 42.8782 233.428 41.053C232.399 39.1947 231.885 36.9879 231.885 34.4327ZM244.677 42.2477C246.901 42.2477 248.726 41.5508 250.153 40.1571C251.613 38.7301 252.343 36.7722 252.343 34.2834V33.8354C252.343 31.2802 251.63 29.3223 250.203 27.9617C248.776 26.5679 246.934 25.871 244.677 25.871C242.487 25.871 240.662 26.5679 239.202 27.9617C237.775 29.3223 237.062 31.2802 237.062 33.8354V34.2834C237.062 36.7722 237.775 38.7301 239.202 40.1571C240.662 41.5508 242.487 42.2477 244.677 42.2477Z" fill="#071634"/>
<path d="M276.418 47.2752C273.962 47.2752 271.772 46.7774 269.847 45.7819C267.956 44.7531 266.462 43.293 265.367 41.4015C264.272 39.5099 263.725 37.27 263.725 34.6816V33.9349C263.725 31.3465 264.272 29.1231 265.367 27.2648C266.462 25.3733 267.956 23.9132 269.847 22.8844C271.772 21.8557 273.962 21.3413 276.418 21.3413C278.873 21.3413 281.064 21.8557 282.988 22.8844C284.913 23.9132 286.423 25.3733 287.518 27.2648C288.613 29.1231 289.161 31.3465 289.161 33.9349V34.6816C289.161 37.27 288.613 39.5099 287.518 41.4015C286.423 43.293 284.913 44.7531 282.988 45.7819C281.064 46.7774 278.873 47.2752 276.418 47.2752ZM276.418 42.6957C278.674 42.6957 280.499 41.9822 281.893 40.5553C283.32 39.0951 284.034 37.0875 284.034 34.5322V34.0843C284.034 31.529 283.337 29.538 281.943 28.111C280.549 26.6509 278.707 25.9208 276.418 25.9208C274.194 25.9208 272.369 26.6509 270.942 28.111C269.548 29.538 268.852 31.529 268.852 34.0843V34.5322C268.852 37.0875 269.548 39.0951 270.942 40.5553C272.369 41.9822 274.194 42.6957 276.418 42.6957Z" fill="#071634"/>
<path d="M300.343 46.5783L292.08 22.0382H297.506L304.027 42.7952H304.823L311.344 22.0382H316.77L308.507 46.5783H300.343Z" fill="#071634"/>
<path d="M328.68 47.2752C326.921 47.2752 325.345 46.9765 323.951 46.3792C322.591 45.7819 321.496 44.9025 320.666 43.741C319.869 42.5795 319.471 41.1692 319.471 39.51C319.471 37.8175 319.869 36.4238 320.666 35.3287C321.496 34.2004 322.607 33.3542 324.001 32.7901C325.428 32.2259 327.037 31.9438 328.829 31.9438H336.296V30.351C336.296 28.924 335.865 27.7792 335.002 26.9164C334.139 26.0536 332.812 25.6222 331.02 25.6222C329.261 25.6222 327.917 26.037 326.988 26.8666C326.058 27.6962 325.445 28.7747 325.146 30.1021L320.367 28.559C320.765 27.2316 321.396 26.037 322.259 24.9751C323.155 23.88 324.333 23.0006 325.793 22.3369C327.253 21.6732 329.012 21.3413 331.069 21.3413C334.255 21.3413 336.76 22.1544 338.586 23.7804C340.411 25.4065 341.323 27.7128 341.323 30.6994V40.8042C341.323 41.7997 341.788 42.2975 342.717 42.2975H344.808V46.5783H340.975C339.813 46.5783 338.868 46.2796 338.138 45.6823C337.408 45.085 337.043 44.272 337.043 43.2432V43.0939H336.296C336.03 43.5917 335.632 44.1724 335.101 44.8361C334.57 45.4998 333.79 46.0805 332.762 46.5783C331.733 47.0429 330.372 47.2752 328.68 47.2752ZM329.427 43.0441C331.484 43.0441 333.143 42.4634 334.404 41.3019C335.665 40.1073 336.296 38.4812 336.296 36.4238V35.926H329.128C327.767 35.926 326.672 36.2247 325.843 36.822C325.013 37.3861 324.598 38.2323 324.598 39.3606C324.598 40.4889 325.03 41.3849 325.893 42.0486C326.755 42.7123 327.933 43.0441 329.427 43.0441Z" fill="#071634"/>
<path d="M357.3 46.5783C355.807 46.5783 354.612 46.1303 353.716 45.2343C352.854 44.3383 352.422 43.1437 352.422 41.6504V26.3688H345.652V22.0382H352.422V13.9246H357.549V22.0382H364.866V26.3688H357.549V40.7544C357.549 41.7499 358.014 42.2477 358.943 42.2477H364.07V46.5783H357.3Z" fill="#071634"/>
<path d="M381.264 47.2752C378.776 47.2752 376.602 46.7608 374.744 45.7321C372.885 44.6702 371.425 43.1935 370.363 41.3019C369.335 39.3772 368.82 37.1538 368.82 34.6318V34.0345C368.82 31.4793 369.335 29.2559 370.363 27.3644C371.392 25.4396 372.819 23.9629 374.644 22.9342C376.502 21.8723 378.643 21.3413 381.065 21.3413C383.421 21.3413 385.479 21.8723 387.238 22.9342C389.03 23.9629 390.423 25.4065 391.419 27.2648C392.414 29.1231 392.912 31.2967 392.912 33.7856V35.7269H374.047C374.113 37.8839 374.827 39.6095 376.187 40.9037C377.581 42.1647 379.307 42.7952 381.364 42.7952C383.289 42.7952 384.732 42.3638 385.695 41.501C386.69 40.6382 387.453 39.6427 387.984 38.5144L392.215 40.7046C391.751 41.6338 391.07 42.6127 390.174 43.6414C389.312 44.6702 388.167 45.533 386.74 46.2299C385.313 46.9267 383.488 47.2752 381.264 47.2752ZM374.097 31.7945H387.686C387.553 29.9362 386.889 28.4926 385.695 27.4639C384.5 26.402 382.94 25.871 381.016 25.871C379.091 25.871 377.515 26.402 376.287 27.4639C375.092 28.4926 374.362 29.9362 374.097 31.7945Z" fill="#071634"/>
<path d="M399.084 46.5783V11.7344H404.211V46.5783H399.084Z" fill="#071634"/>
<path d="M407.141 56.5337V52.1035H410.476C411.438 52.1035 411.919 51.6058 411.919 50.6102V22.0382H417.046V51.6058C417.046 53.0991 416.615 54.2937 415.752 55.1897C414.889 56.0857 413.678 56.5337 412.118 56.5337H407.141ZM414.508 18.7032C413.512 18.7032 412.666 18.3879 411.969 17.7574C411.305 17.0937 410.973 16.2475 410.973 15.2188C410.973 14.19 411.305 13.3604 411.969 12.7299C412.666 12.0662 413.512 11.7344 414.508 11.7344C415.536 11.7344 416.383 12.0662 417.046 12.7299C417.71 13.3604 418.042 14.19 418.042 15.2188C418.042 16.2475 417.71 17.0937 417.046 17.7574C416.383 18.3879 415.536 18.7032 414.508 18.7032Z" fill="#071634"/>
<path d="M424.653 46.5783V22.0382H429.78V46.5783H424.653ZM427.241 18.7032C426.246 18.7032 425.4 18.3879 424.703 17.7574C424.039 17.0937 423.707 16.2475 423.707 15.2188C423.707 14.19 424.039 13.3604 424.703 12.7299C425.4 12.0662 426.246 11.7344 427.241 11.7344C428.27 11.7344 429.116 12.0662 429.78 12.7299C430.444 13.3604 430.775 14.19 430.775 15.2188C430.775 16.2475 430.444 17.0937 429.78 17.7574C429.116 18.3879 428.27 18.7032 427.241 18.7032Z" fill="#071634"/>
<path d="M440.475 47.2752C439.313 47.2752 438.335 46.8935 437.538 46.1303C436.775 45.367 436.393 44.3881 436.393 43.1935C436.393 41.9988 436.775 41.0364 437.538 40.3064C438.335 39.5431 439.313 39.1615 440.475 39.1615C441.636 39.1615 442.599 39.5431 443.362 40.3064C444.158 41.0696 444.557 42.032 444.557 43.1935C444.557 44.3881 444.158 45.367 443.362 46.1303C442.599 46.8935 441.636 47.2752 440.475 47.2752Z" fill="#071634"/>
<path d="M451.146 46.5783V22.0382H456.173V24.9253H456.969C457.368 23.8966 457.998 23.1499 458.861 22.6853C459.757 22.1875 460.852 21.9387 462.146 21.9387H465.083V26.5679H461.947C460.288 26.5679 458.927 27.0325 457.865 27.9617C456.803 28.8577 456.273 30.2514 456.273 32.143V46.5783H451.146Z" fill="#071634"/>
<path d="M479.915 47.2752C476.796 47.2752 474.208 46.5783 472.15 45.1845C470.093 43.7908 468.832 41.6835 468.367 38.8629L473.146 37.718C473.411 39.0786 473.859 40.1571 474.49 40.9535C475.12 41.7499 475.9 42.3141 476.829 42.6459C477.792 42.9778 478.82 43.1437 479.915 43.1437C481.541 43.1437 482.786 42.8284 483.649 42.1979C484.545 41.5674 484.993 40.7544 484.993 39.7588C484.993 38.7633 484.578 38.0332 483.748 37.5686C482.919 37.1041 481.691 36.7224 480.065 36.4238L478.372 36.1251C476.713 35.8265 475.203 35.3951 473.843 34.8309C472.482 34.2668 471.404 33.4869 470.607 32.4914C469.811 31.4959 469.413 30.2182 469.413 28.6586C469.413 26.3356 470.275 24.5437 472.001 23.2826C473.727 21.9884 476.016 21.3413 478.87 21.3413C481.624 21.3413 483.881 21.9719 485.64 23.2329C487.432 24.4607 488.593 26.1365 489.124 28.2603L484.346 29.6043C484.047 28.111 483.416 27.0657 482.454 26.4684C481.492 25.8379 480.297 25.5226 478.87 25.5226C477.476 25.5226 476.381 25.7881 475.585 26.319C474.788 26.8168 474.39 27.5303 474.39 28.4595C474.39 29.455 474.772 30.1851 475.535 30.6496C476.332 31.1142 477.393 31.4627 478.721 31.695L480.463 31.9936C482.222 32.2923 483.831 32.7071 485.291 33.238C486.751 33.769 487.896 34.5323 488.726 35.5278C489.589 36.5233 490.02 37.8507 490.02 39.51C490.02 41.9656 489.108 43.8737 487.282 45.2343C485.457 46.5949 483.002 47.2752 479.915 47.2752Z" fill="#071634"/>
<path d="M170.66 107.733V102.997L187.3 81.5791V81.0671H171.172V77.8672H190.841V82.6031L174.201 104.021V104.533H191.183V107.733H170.66Z" fill="#071634"/>
<path d="M203.093 108.331C201.642 108.331 200.319 108.075 199.125 107.563C197.93 107.051 196.991 106.311 196.309 105.344C195.626 104.377 195.285 103.197 195.285 101.803C195.285 100.381 195.626 99.2144 196.309 98.3042C196.991 97.3656 197.93 96.6687 199.125 96.2136C200.319 95.73 201.656 95.4883 203.135 95.4883H210.175V93.9523C210.175 92.4732 209.734 91.307 208.853 90.4537C207.999 89.6003 206.719 89.1737 205.013 89.1737C203.334 89.1737 202.026 89.5861 201.087 90.411C200.149 91.2074 199.509 92.2883 199.167 93.6536L196.01 92.6296C196.351 91.4634 196.892 90.411 197.631 89.4723C198.371 88.5052 199.352 87.7373 200.575 87.1684C201.827 86.5711 203.32 86.2724 205.055 86.2724C207.729 86.2724 209.805 86.9693 211.285 88.363C212.764 89.7283 213.503 91.6625 213.503 94.1656V103.595C213.503 104.448 213.901 104.875 214.698 104.875H216.618V107.733H213.674C212.735 107.733 211.981 107.477 211.413 106.965C210.844 106.425 210.559 105.714 210.559 104.832V104.619H210.047C209.734 105.159 209.308 105.728 208.767 106.325C208.255 106.894 207.544 107.364 206.634 107.733C205.724 108.132 204.543 108.331 203.093 108.331ZM203.477 105.429C205.468 105.429 207.075 104.846 208.298 103.68C209.549 102.485 210.175 100.822 210.175 98.6882V98.2189H203.263C201.926 98.2189 200.817 98.5175 199.935 99.1149C199.082 99.6837 198.655 100.551 198.655 101.717C198.655 102.884 199.096 103.794 199.978 104.448C200.888 105.102 202.054 105.429 203.477 105.429Z" fill="#071634"/>
<path d="M217.138 116.267V113.28H220.039C220.893 113.28 221.319 112.853 221.319 112V86.8697H224.69V112.597C224.69 113.735 224.363 114.631 223.709 115.285C223.083 115.939 222.173 116.267 220.978 116.267H217.138ZM223.026 83.6271C222.286 83.6271 221.661 83.3853 221.149 82.9018C220.665 82.4182 220.423 81.8067 220.423 81.0671C220.423 80.2992 220.665 79.6734 221.149 79.1898C221.661 78.7063 222.286 78.4645 223.026 78.4645C223.766 78.4645 224.377 78.7063 224.861 79.1898C225.344 79.6734 225.586 80.2992 225.586 81.0671C225.586 81.8067 225.344 82.4182 224.861 82.9018C224.377 83.3853 223.766 83.6271 223.026 83.6271Z" fill="#071634"/>
<path d="M241.333 108.331C239.228 108.331 237.379 107.89 235.786 107.008C234.193 106.098 232.956 104.832 232.074 103.211C231.192 101.589 230.752 99.7122 230.752 97.5789V97.0669C230.752 94.9051 231.192 93.0136 232.074 91.3923C232.956 89.771 234.179 88.5195 235.743 87.6377C237.308 86.7275 239.1 86.2724 241.119 86.2724C243.082 86.2724 244.817 86.6991 246.325 87.5524C247.832 88.3772 249.013 89.5719 249.866 91.1363C250.719 92.7007 251.146 94.5354 251.146 96.6402V98.1762H234.122C234.208 100.423 234.933 102.187 236.298 103.467C237.663 104.718 239.37 105.344 241.418 105.344C243.21 105.344 244.59 104.932 245.557 104.107C246.524 103.282 247.263 102.301 247.775 101.163L250.677 102.571C250.25 103.453 249.653 104.334 248.885 105.216C248.145 106.098 247.164 106.837 245.941 107.435C244.746 108.032 243.21 108.331 241.333 108.331ZM234.165 95.4029H247.733C247.619 93.4687 246.95 91.9612 245.727 90.8803C244.533 89.7994 242.997 89.259 241.119 89.259C239.214 89.259 237.649 89.7994 236.426 90.8803C235.203 91.9612 234.449 93.4687 234.165 95.4029Z" fill="#071634"/>
<path d="M265.857 108.331C264.065 108.331 262.415 107.904 260.908 107.051C259.4 106.197 258.206 104.96 257.324 103.339C256.442 101.717 256.001 99.7975 256.001 97.5789V97.0242C256.001 94.8056 256.442 92.8998 257.324 91.307C258.206 89.6857 259.386 88.4484 260.865 87.595C262.373 86.7133 264.037 86.2724 265.857 86.2724C267.308 86.2724 268.531 86.4715 269.526 86.8697C270.55 87.2395 271.375 87.723 272.001 88.3204C272.627 88.8892 273.11 89.5008 273.452 90.155H274.049V77.8672H277.42V107.733H274.134V104.277H273.537C272.968 105.33 272.086 106.269 270.892 107.093C269.697 107.918 268.019 108.331 265.857 108.331ZM266.753 105.344C268.915 105.344 270.664 104.661 272.001 103.296C273.366 101.902 274.049 99.9682 274.049 97.4936V97.1096C274.049 94.6349 273.366 92.715 272.001 91.3497C270.664 89.9559 268.915 89.259 266.753 89.259C264.62 89.259 262.856 89.9559 261.462 91.3497C260.097 92.715 259.414 94.6349 259.414 97.1096V97.4936C259.414 99.9682 260.097 101.902 261.462 103.296C262.856 104.661 264.62 105.344 266.753 105.344Z" fill="#071634"/>
<path d="M284.483 107.733V86.8697H287.768V90.411H288.366C288.821 89.4155 289.589 88.5195 290.67 87.723C291.779 86.8982 293.4 86.4857 295.534 86.4857C297.098 86.4857 298.492 86.8128 299.715 87.467C300.966 88.1213 301.962 89.0884 302.701 90.3683C303.441 91.6483 303.811 93.227 303.811 95.1043V107.733H300.44V95.3603C300.44 93.2838 299.914 91.7763 298.862 90.8377C297.838 89.899 296.444 89.4297 294.68 89.4297C292.661 89.4297 291.011 90.0839 289.731 91.3923C288.479 92.7007 287.854 94.6492 287.854 97.2376V107.733H284.483Z" fill="#071634"/>
<path d="M310.649 107.733V86.8697H314.02V107.733H310.649ZM312.356 83.6271C311.616 83.6271 310.991 83.3853 310.479 82.9018C309.995 82.4182 309.753 81.8067 309.753 81.0671C309.753 80.2992 309.995 79.6734 310.479 79.1898C310.991 78.7063 311.616 78.4645 312.356 78.4645C313.096 78.4645 313.707 78.7063 314.191 79.1898C314.674 79.6734 314.916 80.2992 314.916 81.0671C314.916 81.8067 314.674 82.4182 314.191 82.9018C313.707 83.3853 313.096 83.6271 312.356 83.6271Z" fill="#071634"/>
<path d="M330.707 108.331C328.688 108.331 326.867 107.904 325.246 107.051C323.653 106.169 322.387 104.917 321.449 103.296C320.539 101.675 320.084 99.7549 320.084 97.5362V97.0669C320.084 94.8198 320.539 92.8998 321.449 91.307C322.387 89.6857 323.653 88.4484 325.246 87.595C326.867 86.7133 328.688 86.2724 330.707 86.2724C332.698 86.2724 334.391 86.6422 335.785 87.3817C337.207 88.1213 338.316 89.1026 339.113 90.3257C339.937 91.5488 340.464 92.8572 340.691 94.2509L337.406 94.9336C337.264 93.9096 336.922 92.971 336.382 92.1176C335.87 91.2643 335.145 90.5817 334.206 90.0697C333.267 89.5577 332.115 89.3017 330.75 89.3017C329.356 89.3017 328.105 89.6146 326.995 90.2403C325.915 90.8661 325.047 91.7621 324.393 92.9283C323.767 94.0945 323.454 95.4883 323.454 97.1096V97.4936C323.454 99.1149 323.767 100.509 324.393 101.675C325.047 102.841 325.915 103.737 326.995 104.363C328.105 104.989 329.356 105.301 330.75 105.301C332.826 105.301 334.405 104.761 335.486 103.68C336.595 102.599 337.278 101.262 337.534 99.6695L340.862 100.395C340.549 101.76 339.98 103.054 339.155 104.277C338.33 105.501 337.207 106.482 335.785 107.221C334.391 107.961 332.698 108.331 330.707 108.331Z" fill="#071634"/>
<path d="M353.007 108.331C351.556 108.331 350.234 108.075 349.039 107.563C347.844 107.051 346.906 106.311 346.223 105.344C345.54 104.377 345.199 103.197 345.199 101.803C345.199 100.381 345.54 99.2144 346.223 98.3042C346.906 97.3656 347.844 96.6687 349.039 96.2136C350.234 95.73 351.571 95.4883 353.05 95.4883H360.09V93.9523C360.09 92.4732 359.649 91.307 358.767 90.4537C357.914 89.6003 356.634 89.1737 354.927 89.1737C353.249 89.1737 351.94 89.5861 351.002 90.411C350.063 91.2074 349.423 92.2883 349.082 93.6536L345.924 92.6296C346.266 91.4634 346.806 90.411 347.546 89.4723C348.285 88.5052 349.267 87.7373 350.49 87.1684C351.741 86.5711 353.235 86.2724 354.97 86.2724C357.643 86.2724 359.72 86.9693 361.199 88.363C362.678 89.7283 363.418 91.6625 363.418 94.1656V103.595C363.418 104.448 363.816 104.875 364.612 104.875H366.532V107.733H363.588C362.65 107.733 361.896 107.477 361.327 106.965C360.758 106.425 360.474 105.714 360.474 104.832V104.619H359.962C359.649 105.159 359.222 105.728 358.682 106.325C358.17 106.894 357.459 107.364 356.548 107.733C355.638 108.132 354.458 108.331 353.007 108.331ZM353.391 105.429C355.382 105.429 356.989 104.846 358.212 103.68C359.464 102.485 360.09 100.822 360.09 98.6882V98.2189H353.178C351.841 98.2189 350.732 98.5175 349.85 99.1149C348.996 99.6837 348.57 100.551 348.57 101.717C348.57 102.884 349.011 103.794 349.892 104.448C350.803 105.102 351.969 105.429 353.391 105.429Z" fill="#071634"/>
<path d="M393.669 108.331C391.507 108.331 389.815 107.918 388.592 107.093C387.397 106.269 386.53 105.33 385.989 104.277H385.392V107.733H382.107V77.8672H385.477V90.155H386.075C386.416 89.5008 386.899 88.8892 387.525 88.3204C388.151 87.723 388.962 87.2395 389.957 86.8697C390.981 86.4715 392.218 86.2724 393.669 86.2724C395.489 86.2724 397.139 86.7133 398.618 87.595C400.126 88.4484 401.321 89.6857 402.202 91.307C403.084 92.8998 403.525 94.8056 403.525 97.0242V97.5789C403.525 99.7975 403.07 101.717 402.16 103.339C401.278 104.96 400.083 106.197 398.576 107.051C397.097 107.904 395.461 108.331 393.669 108.331ZM392.773 105.344C394.935 105.344 396.684 104.661 398.021 103.296C399.386 101.902 400.069 99.9682 400.069 97.4936V97.1096C400.069 94.6349 399.386 92.715 398.021 91.3497C396.684 89.9559 394.935 89.259 392.773 89.259C390.64 89.259 388.876 89.9559 387.482 91.3497C386.117 92.715 385.435 94.6349 385.435 97.1096V97.4936C385.435 99.9682 386.117 101.902 387.482 103.296C388.876 104.661 390.64 105.344 392.773 105.344Z" fill="#071634"/>
<path d="M409.564 107.733V77.8672H412.935V107.733H409.564Z" fill="#071634"/>
<path d="M420.023 107.733V86.8697H423.393V107.733H420.023ZM421.729 83.6271C420.99 83.6271 420.364 83.3853 419.852 82.9018C419.368 82.4182 419.127 81.8067 419.127 81.0671C419.127 80.2992 419.368 79.6734 419.852 79.1898C420.364 78.7063 420.99 78.4645 421.729 78.4645C422.469 78.4645 423.08 78.7063 423.564 79.1898C424.047 79.6734 424.289 80.2992 424.289 81.0671C424.289 81.8067 424.047 82.4182 423.564 82.9018C423.08 83.3853 422.469 83.6271 421.729 83.6271Z" fill="#071634"/>
<path d="M429.542 107.733V103.381L442.811 90.283V89.8137H429.969V86.8697H446.353V91.2217L433.041 104.32V104.832H446.694V107.733H429.542ZM435.771 84.0538L430.481 78.2512H434.321L437.521 81.7925H438.118L441.361 78.2512H445.158L439.91 84.0538H435.771Z" fill="#071634"/>
<path d="M452.73 107.733V86.8697H456.016V90.411H456.613C457.068 89.4155 457.836 88.5195 458.917 87.723C460.026 86.8982 461.648 86.4857 463.781 86.4857C465.345 86.4857 466.739 86.8128 467.962 87.467C469.214 88.1213 470.209 89.0884 470.949 90.3683C471.688 91.6483 472.058 93.227 472.058 95.1043V107.733H468.688V95.3603C468.688 93.2838 468.161 91.7763 467.109 90.8377C466.085 89.899 464.691 89.4297 462.928 89.4297C460.908 89.4297 459.258 90.0839 457.978 91.3923C456.727 92.7007 456.101 94.6492 456.101 97.2376V107.733H452.73Z" fill="#071634"/>
<path d="M474.801 116.267V113.28H477.702C478.555 113.28 478.982 112.853 478.982 112V86.8697H482.353V112.597C482.353 113.735 482.026 114.631 481.371 115.285C480.746 115.939 479.835 116.267 478.641 116.267H474.801ZM480.689 83.6271C479.949 83.6271 479.323 83.3853 478.811 82.9018C478.328 82.4182 478.086 81.8067 478.086 81.0671C478.086 80.2992 478.328 79.6734 478.811 79.1898C479.323 78.7063 479.949 78.4645 480.689 78.4645C481.428 78.4645 482.04 78.7063 482.523 79.1898C483.007 79.6734 483.249 80.2992 483.249 81.0671C483.249 81.8067 483.007 82.4182 482.523 82.9018C482.04 83.3853 481.428 83.6271 480.689 83.6271Z" fill="#071634"/>
<path d="M489.438 107.733V86.8697H492.809V107.733H489.438ZM491.145 83.6271C490.405 83.6271 489.78 83.3853 489.268 82.9018C488.784 82.4182 488.542 81.8067 488.542 81.0671C488.542 80.2992 488.784 79.6734 489.268 79.1898C489.78 78.7063 490.405 78.4645 491.145 78.4645C491.884 78.4645 492.496 78.7063 492.98 79.1898C493.463 79.6734 493.705 80.2992 493.705 81.0671C493.705 81.8067 493.463 82.4182 492.98 82.9018C492.496 83.3853 491.884 83.6271 491.145 83.6271Z" fill="#071634"/>
<path d="M499.896 107.733V77.8672H503.267V90.1977H503.864C504.149 89.5719 504.575 88.9888 505.144 88.4484C505.742 87.8795 506.495 87.4102 507.406 87.0404C508.344 86.6706 509.525 86.4857 510.947 86.4857C512.511 86.4857 513.905 86.8271 515.128 87.5097C516.38 88.1639 517.375 89.131 518.115 90.411C518.854 91.6625 519.224 93.227 519.224 95.1043V107.733H515.854V95.3603C515.854 93.2838 515.327 91.7763 514.275 90.8377C513.251 89.899 511.857 89.4297 510.094 89.4297C508.074 89.4297 506.424 90.0839 505.144 91.3923C503.893 92.7007 503.267 94.6492 503.267 97.2376V107.733H499.896Z" fill="#071634"/>
</svg>
