<svg width="196" height="48" viewBox="0 0 196 48" fill="none" xmlns="http://www.w3.org/2000/svg">
<path d="M44.2925 10.4167C43.8398 9.96393 43.3116 9.73752 42.6325 9.73752H34.7099L37.5017 6.94517C38.4071 6.03954 38.4071 4.60563 37.5017 3.7C36.5962 2.79437 35.0871 2.79437 34.2571 3.7L27.4663 10.4922C27.0135 10.945 26.7872 11.5488 26.7872 12.1525C26.7872 12.7563 27.0135 13.36 27.4663 13.8129C27.6926 14.0393 27.919 14.1902 28.2208 14.3411C28.5226 14.4921 28.8244 14.4921 29.1262 14.4921L42.6325 14.4166C43.9152 14.4166 44.9716 13.36 44.9716 12.0771C44.9716 11.3978 44.7452 10.8696 44.2925 10.4167Z" fill="white"/>
<path d="M47.2347 27.0916L41.5756 21.5069H45.5747C46.8574 21.5069 47.9137 20.4503 47.9137 19.1674C47.9137 17.8844 46.8574 16.8278 45.5747 16.8278H36.0674C34.7847 16.8278 33.7284 17.8844 33.7284 19.1674C33.7284 19.4692 33.8038 19.6956 33.8793 19.922C33.9547 20.2239 34.1811 20.5258 34.4075 20.8277L43.9901 30.3368C44.4429 30.7896 44.971 31.016 45.6501 31.016C46.2538 31.016 46.8574 30.7896 47.3101 30.3368C47.7628 29.884 47.9892 29.2802 47.9892 28.6765C47.9892 28.1482 47.6874 27.5444 47.2347 27.0916Z" fill="white"/>
<path d="M44.2906 34.2626L37.4997 27.4704C37.1225 27.0931 36.5943 26.8667 36.0661 26.8667C35.9906 26.8667 35.9152 26.8667 35.8397 26.8667C35.6888 26.8667 35.6134 26.8667 35.5379 26.8667H35.4625C35.387 26.8667 35.3116 26.8667 35.2361 26.9422C35.1607 26.9422 35.0852 27.0176 35.0097 27.0176C34.7834 27.0931 34.4816 27.244 34.3307 27.4704C34.1797 27.6214 34.0288 27.8478 33.8779 28.0742C33.727 28.3761 33.6516 28.7534 33.6516 29.1308L33.727 42.6397C33.727 43.9227 34.7834 44.9793 36.0661 44.9793C37.3488 44.9793 38.4052 43.9227 38.4052 42.6397V34.7155L41.197 37.5078C41.6497 37.9606 42.2533 38.187 42.857 38.187C43.4606 38.187 44.0642 37.9606 44.517 37.5078C44.9697 37.055 45.196 36.4513 45.196 35.8475C44.9697 35.3192 44.7433 34.7155 44.2906 34.2626Z" fill="white"/>
<path d="M28.7476 33.7364C28.5212 33.7364 28.3703 33.7364 28.1439 33.8118C27.7667 33.8873 27.3894 34.1137 27.0876 34.4156L17.5804 44.0001C17.1276 44.453 16.9013 45.0567 16.9013 45.6605C16.9013 46.2642 17.1276 46.868 17.5804 47.3208C18.0331 47.7736 18.5613 48 19.2404 48C19.844 48 20.4476 47.7736 20.9004 47.3208L26.484 41.6606V45.6605C26.484 46.9434 27.5403 48 28.823 48C30.1058 48 31.1621 46.9434 31.1621 45.6605V36.0759C31.0867 34.7929 30.0303 33.7364 28.7476 33.7364Z" fill="white"/>
<path d="M20.4487 34.2645C20.2224 34.0381 19.9205 33.8872 19.6942 33.7363C19.3924 33.5853 19.0906 33.5853 18.7887 33.5853H5.28245C3.99973 33.5853 2.94337 34.6419 2.94337 35.9249C2.94337 36.5286 3.16974 37.1324 3.62246 37.5852C4.07518 38.038 4.67882 38.2644 5.28245 38.2644H13.2051L10.4133 41.0567C9.50788 41.9624 9.50788 43.3963 10.4133 44.3019C10.8661 44.7547 11.4697 44.9811 12.0733 44.9811C12.677 44.9811 13.2806 44.7547 13.7333 44.3019L20.5242 37.5097C20.9769 37.0569 21.2033 36.4531 21.2033 35.8494C21.1278 35.3211 20.9015 34.7173 20.4487 34.2645Z" fill="white"/>
<path d="M14.1099 27.9999C14.0345 27.698 13.8081 27.3961 13.5817 27.1697L3.92361 17.5852C3.54634 17.1323 2.94271 16.9059 2.33908 16.9059C1.73544 16.9059 1.13181 17.1323 0.679087 17.5852C-0.226362 18.4908 -0.226362 20.0002 0.679087 20.8303L6.33815 26.415H2.33908C1.05636 26.4905 4.49751e-08 27.4716 4.49751e-08 28.7546C4.49751e-08 30.0375 1.05636 31.0941 2.33908 31.0941H11.9218C13.2045 31.0941 14.2608 30.0375 14.2608 28.7546C14.2608 28.5282 14.1854 28.2263 14.1099 27.9999Z" fill="white"/>
<path d="M14.4124 18.7912L14.337 5.28219C14.337 3.99922 13.2806 2.94265 11.9979 2.94265C10.7152 2.94265 9.65884 3.99922 9.65884 5.28219V13.2064L6.86704 10.4141C5.96159 9.50846 4.52796 9.50846 3.62251 10.4141C3.24524 10.8669 3.01888 11.4707 3.01888 12.0744C3.01888 12.6782 3.24524 13.2819 3.69796 13.7347L10.4888 20.5269C10.9416 20.9798 11.5452 21.2062 12.1488 21.2062C12.7525 21.2062 13.3561 20.9798 13.8088 20.5269C13.9597 20.376 14.1106 20.1496 14.2615 19.9232C14.337 19.5458 14.4124 19.1685 14.4124 18.7912Z" fill="white"/>
<path d="M30.4076 0.679221C29.5021 -0.226407 28.0685 -0.226407 27.163 0.679221L21.504 6.3394V2.33954C21.504 1.05657 20.4476 4.4984e-08 19.1649 4.4984e-08C17.8822 4.4984e-08 16.9013 1.05657 16.9013 2.33954V11.9241C16.9013 13.2071 17.9576 14.2636 19.2404 14.2636C19.4667 14.2636 19.6931 14.1882 19.844 14.1882C20.2213 14.1127 20.5985 13.8863 20.9004 13.5844L30.4076 3.99986C31.313 3.09423 31.313 1.58485 30.4076 0.679221Z" fill="white"/>
<path d="M44.2925 10.4141C43.8398 9.96133 43.3116 9.73492 42.6325 9.73492H34.7099L37.5017 6.94256C38.4071 6.03694 38.4071 4.60302 37.5017 3.69739C36.5962 2.79177 35.0871 2.79177 34.2571 3.69739L27.4663 10.4896C27.0135 10.9424 26.7872 11.5462 26.7872 12.1499C26.7872 12.7537 27.0135 13.3574 27.4663 13.8102C27.6926 14.0367 27.919 14.1876 28.2208 14.3385C28.5226 14.4895 28.8244 14.4895 29.1262 14.4895L42.6325 14.414C43.9152 14.414 44.9716 13.3574 44.9716 12.0745C44.9716 11.3952 44.7452 10.867 44.2925 10.4141Z" fill="white"/>
<path d="M47.2347 27.0916L41.5756 21.5069H45.5747C46.8574 21.5069 47.9137 20.4503 47.9137 19.1674C47.9137 17.8844 46.8574 16.8278 45.5747 16.8278H36.0674C34.7847 16.8278 33.7284 17.8844 33.7284 19.1674C33.7284 19.4692 33.8038 19.6956 33.8793 19.922C33.9547 20.2239 34.1811 20.5258 34.4075 20.8277L43.9901 30.3368C44.4429 30.7896 44.971 31.016 45.6501 31.016C46.2538 31.016 46.8574 30.7896 47.3101 30.3368C47.7628 29.884 47.9892 29.2802 47.9892 28.6765C47.9892 28.1482 47.6874 27.5444 47.2347 27.0916Z" fill="white"/>
<path d="M29.327 23.9996C29.327 26.945 26.9397 29.3328 23.9948 29.3328C21.0499 29.3328 18.6626 26.945 18.6626 23.9996C18.6626 21.0541 21.0499 18.6663 23.9948 18.6663C26.9397 18.6663 29.327 21.0541 29.327 23.9996Z" fill="white"/>
<path d="M44.2906 34.2626L37.4997 27.4704C37.1225 27.0931 36.5943 26.8667 36.0661 26.8667C35.9906 26.8667 35.9152 26.8667 35.8397 26.8667C35.6888 26.8667 35.6134 26.8667 35.5379 26.8667H35.4625C35.387 26.8667 35.3116 26.8667 35.2361 26.9422C35.1607 26.9422 35.0852 27.0176 35.0097 27.0176C34.7834 27.0931 34.4816 27.244 34.3307 27.4704C34.1797 27.6214 34.0288 27.8478 33.8779 28.0742C33.727 28.3761 33.6516 28.7534 33.6516 29.1308L33.727 42.6397C33.727 43.9227 34.7834 44.9793 36.0661 44.9793C37.3488 44.9793 38.4052 43.9227 38.4052 42.6397V34.7155L41.197 37.5078C41.6497 37.9606 42.2533 38.187 42.857 38.187C43.4606 38.187 44.0642 37.9606 44.517 37.5078C44.9697 37.055 45.196 36.4513 45.196 35.8475C44.9697 35.3192 44.7433 34.7155 44.2906 34.2626Z" fill="white"/>
<path d="M28.7476 33.7337C28.5212 33.7337 28.3703 33.7337 28.1439 33.8092C27.7667 33.8847 27.3894 34.1111 27.0876 34.413L17.5804 43.9975C17.1276 44.4504 16.9013 45.0541 16.9013 45.6579C16.9013 46.2616 17.1276 46.8654 17.5804 47.3182C18.0331 47.771 18.5613 47.9974 19.2404 47.9974C19.844 47.9974 20.4476 47.771 20.9004 47.3182L26.484 41.658V45.6579C26.484 46.9408 27.5403 47.9974 28.823 47.9974C30.1058 47.9974 31.1621 46.9408 31.1621 45.6579V36.0733C31.0867 34.7903 30.0303 33.7337 28.7476 33.7337Z" fill="white"/>
<path d="M20.4487 34.2645C20.2224 34.0381 19.9205 33.8872 19.6942 33.7363C19.3924 33.5853 19.0906 33.5853 18.7887 33.5853H5.28245C3.99973 33.5853 2.94337 34.6419 2.94337 35.9249C2.94337 36.5286 3.16974 37.1324 3.62246 37.5852C4.07518 38.038 4.67882 38.2644 5.28245 38.2644H13.2051L10.4133 41.0567C9.50788 41.9624 9.50788 43.3963 10.4133 44.3019C10.8661 44.7547 11.4697 44.9811 12.0733 44.9811C12.677 44.9811 13.2806 44.7547 13.7333 44.3019L20.5242 37.5097C20.9769 37.0569 21.2033 36.4531 21.2033 35.8494C21.1278 35.3211 20.9015 34.7173 20.4487 34.2645Z" fill="white"/>
<path d="M14.1099 27.9999C14.0345 27.698 13.8081 27.3961 13.5817 27.1697L3.92361 17.5852C3.54634 17.1323 2.94271 16.9059 2.33908 16.9059C1.73544 16.9059 1.13181 17.1323 0.679087 17.5852C-0.226362 18.4908 -0.226362 20.0002 0.679087 20.8303L6.33815 26.415H2.33908C1.05636 26.4905 4.49751e-08 27.4716 4.49751e-08 28.7546C4.49751e-08 30.0375 1.05636 31.0941 2.33908 31.0941H11.9218C13.2045 31.0941 14.2608 30.0375 14.2608 28.7546C14.2608 28.5282 14.1854 28.2263 14.1099 27.9999Z" fill="white"/>
<path d="M14.4124 18.7912L14.337 5.28219C14.337 3.99922 13.2806 2.94265 11.9979 2.94265C10.7152 2.94265 9.65884 3.99922 9.65884 5.28219V13.2064L6.86704 10.4141C5.96159 9.50846 4.52796 9.50846 3.62251 10.4141C3.24524 10.8669 3.01888 11.4707 3.01888 12.0744C3.01888 12.6782 3.24524 13.2819 3.69796 13.7347L10.4888 20.5269C10.9416 20.9798 11.5452 21.2062 12.1488 21.2062C12.7525 21.2062 13.3561 20.9798 13.8088 20.5269C13.9597 20.376 14.1106 20.1496 14.2615 19.9232C14.337 19.5458 14.4124 19.1685 14.4124 18.7912Z" fill="white"/>
<path d="M30.4076 0.679221C29.5021 -0.226407 28.0685 -0.226407 27.163 0.679221L21.504 6.3394V2.33954C21.504 1.05657 20.4476 4.4984e-08 19.1649 4.4984e-08C17.8822 4.4984e-08 16.9013 1.05657 16.9013 2.33954V11.9241C16.9013 13.2071 17.9576 14.2636 19.2404 14.2636C19.4667 14.2636 19.6931 14.1882 19.844 14.1882C20.2213 14.1127 20.5985 13.8863 20.9004 13.5844L30.4076 3.99986C31.313 3.09423 31.313 1.58485 30.4076 0.679221Z" fill="white"/>
<path d="M65.3472 20.6663V7.59986H69.229L72.7749 19.3223H73.0735V7.59986H75.0704V20.6663H71.1886L67.6427 8.92517H67.3441V20.6663H65.3472Z" fill="white"/>
<path d="M82.0688 20.9276C81.1357 20.9276 80.3207 20.7347 79.624 20.349C78.9272 19.9507 78.3798 19.397 77.9817 18.6877C77.596 17.9659 77.4031 17.1321 77.4031 16.1864V15.9624C77.4031 15.0042 77.596 14.1704 77.9817 13.4611C78.3674 12.7393 78.9024 12.1855 79.5867 11.7998C80.2834 11.4016 81.0859 11.2025 81.9941 11.2025C82.8775 11.2025 83.6489 11.4016 84.3083 11.7998C84.9801 12.1855 85.5027 12.7269 85.876 13.4237C86.2492 14.1206 86.4358 14.9357 86.4358 15.869V16.597H79.3627C79.3876 17.4059 79.6551 18.053 80.1652 18.5383C80.6877 19.0112 81.3347 19.2476 82.1061 19.2476C82.8277 19.2476 83.3689 19.0859 83.7298 18.7623C84.103 18.4388 84.3892 18.0654 84.5882 17.6423L86.1746 18.4637C86.0004 18.8121 85.7453 19.1792 85.4094 19.565C85.0859 19.9507 84.6567 20.2743 84.1217 20.5356C83.5867 20.7969 82.9024 20.9276 82.0688 20.9276ZM79.3814 15.1224H84.4763C84.4265 14.4255 84.1777 13.8842 83.7298 13.4984C83.2818 13.1002 82.6971 12.9011 81.9755 12.9011C81.2538 12.9011 80.6629 13.1002 80.2025 13.4984C79.7546 13.8842 79.4809 14.4255 79.3814 15.1224Z" fill="white"/>
<path d="M88.3018 16.1117V15.8317C88.3018 14.8611 88.4947 14.0335 88.8803 13.3491C89.2785 12.6647 89.801 12.1358 90.448 11.7624C91.095 11.3891 91.8042 11.2025 92.5755 11.2025C93.4714 11.2025 94.1556 11.3705 94.6284 11.7064C95.1137 12.0424 95.4683 12.4033 95.6922 12.7891H95.9908V11.4638H97.8571V22.5516C97.8571 23.1116 97.6891 23.5596 97.3532 23.8956C97.0297 24.2315 96.5818 24.3995 96.0095 24.3995H89.8135V22.7196H95.4123C95.7731 22.7196 95.9535 22.5329 95.9535 22.1596V19.229H95.6549C95.518 19.453 95.3252 19.6832 95.0763 19.9196C94.8275 20.1561 94.4978 20.349 94.0872 20.4983C93.6891 20.6476 93.1852 20.7223 92.5755 20.7223C91.8042 20.7223 91.0888 20.5418 90.4293 20.181C89.7824 19.8076 89.266 19.2788 88.8803 18.5943C88.4947 17.8974 88.3018 17.0699 88.3018 16.1117ZM93.0981 19.0423C93.9317 19.0423 94.616 18.781 95.151 18.2583C95.6984 17.7232 95.9721 16.989 95.9721 16.0557V15.8877C95.9721 14.9295 95.7046 14.1953 95.1696 13.6851C94.6347 13.1624 93.9441 12.9011 93.0981 12.9011C92.2769 12.9011 91.5927 13.1624 91.0452 13.6851C90.5102 14.1953 90.2427 14.9295 90.2427 15.8877V16.0557C90.2427 16.989 90.5102 17.7232 91.0452 18.2583C91.5927 18.781 92.2769 19.0423 93.0981 19.0423Z" fill="white"/>
<path d="M104.998 20.9276C104.078 20.9276 103.256 20.7409 102.535 20.3676C101.826 19.9818 101.266 19.4343 100.855 18.725C100.445 18.0157 100.239 17.1757 100.239 16.205V15.925C100.239 14.9544 100.445 14.1206 100.855 13.4237C101.266 12.7144 101.826 12.1669 102.535 11.7811C103.256 11.3953 104.078 11.2025 104.998 11.2025C105.919 11.2025 106.74 11.3953 107.462 11.7811C108.183 12.1669 108.749 12.7144 109.16 13.4237C109.571 14.1206 109.776 14.9544 109.776 15.925V16.205C109.776 17.1757 109.571 18.0157 109.16 18.725C108.749 19.4343 108.183 19.9818 107.462 20.3676C106.74 20.7409 105.919 20.9276 104.998 20.9276ZM104.998 19.2103C105.844 19.2103 106.529 18.9428 107.051 18.4077C107.586 17.8601 107.854 17.1072 107.854 16.149V15.981C107.854 15.0228 107.592 14.2762 107.07 13.7411C106.547 13.1935 105.857 12.9198 104.998 12.9198C104.165 12.9198 103.48 13.1935 102.945 13.7411C102.423 14.2762 102.162 15.0228 102.162 15.981V16.149C102.162 17.1072 102.423 17.8601 102.945 18.4077C103.48 18.9428 104.165 19.2103 104.998 19.2103Z" fill="white"/>
<path d="M113.969 20.6663L110.871 11.4638H112.905L115.35 19.2476H115.648L118.093 11.4638H120.127L117.029 20.6663H113.969Z" fill="white"/>
<path d="M124.593 20.9276C123.933 20.9276 123.342 20.8156 122.82 20.5916C122.31 20.3676 121.899 20.0378 121.588 19.6023C121.289 19.1668 121.14 18.6379 121.14 18.0157C121.14 17.381 121.289 16.8584 121.588 16.4477C121.899 16.0246 122.316 15.7073 122.838 15.4957C123.373 15.2842 123.977 15.1784 124.649 15.1784H127.448V14.5811C127.448 14.046 127.286 13.6166 126.963 13.2931C126.639 12.9695 126.142 12.8078 125.47 12.8078C124.81 12.8078 124.307 12.9633 123.958 13.2744C123.61 13.5855 123.38 13.99 123.268 14.4877L121.476 13.9091C121.625 13.4113 121.862 12.9633 122.185 12.5651C122.521 12.1544 122.963 11.8247 123.51 11.5758C124.058 11.3269 124.717 11.2025 125.489 11.2025C126.683 11.2025 127.622 11.5073 128.307 12.1171C128.991 12.7269 129.333 13.5917 129.333 14.7117V18.501C129.333 18.8743 129.507 19.061 129.856 19.061H130.639V20.6663H129.202C128.767 20.6663 128.412 20.5543 128.139 20.3303C127.865 20.1063 127.728 19.8014 127.728 19.4156V19.3596H127.448C127.349 19.5463 127.199 19.7641 127 20.013C126.801 20.2618 126.509 20.4796 126.123 20.6663C125.737 20.8405 125.227 20.9276 124.593 20.9276ZM124.873 19.341C125.644 19.341 126.266 19.1232 126.739 18.6877C127.212 18.2397 127.448 17.6299 127.448 16.8584V16.6717H124.761C124.251 16.6717 123.84 16.7837 123.529 17.0077C123.218 17.2192 123.062 17.5366 123.062 17.9597C123.062 18.3828 123.224 18.7188 123.548 18.9676C123.871 19.2165 124.313 19.341 124.873 19.341Z" fill="white"/>
<path d="M135.323 20.6663C134.763 20.6663 134.315 20.4983 133.979 20.1623C133.656 19.8263 133.494 19.3783 133.494 18.8183V13.0878H130.956V11.4638H133.494V8.42118H135.416V11.4638H138.16V13.0878H135.416V18.4823C135.416 18.8556 135.591 19.0423 135.939 19.0423H137.861V20.6663H135.323Z" fill="white"/>
<path d="M144.308 20.9276C143.375 20.9276 142.56 20.7347 141.863 20.349C141.166 19.9507 140.619 19.397 140.221 18.6877C139.835 17.9659 139.642 17.1321 139.642 16.1864V15.9624C139.642 15.0042 139.835 14.1704 140.221 13.4611C140.606 12.7393 141.141 12.1855 141.826 11.7998C142.523 11.4016 143.325 11.2025 144.233 11.2025C145.117 11.2025 145.888 11.4016 146.547 11.7998C147.219 12.1855 147.742 12.7269 148.115 13.4237C148.488 14.1206 148.675 14.9357 148.675 15.869V16.597H141.602C141.627 17.4059 141.894 18.053 142.404 18.5383C142.927 19.0112 143.574 19.2476 144.345 19.2476C145.067 19.2476 145.608 19.0859 145.969 18.7623C146.342 18.4388 146.628 18.0654 146.827 17.6423L148.414 18.4637C148.24 18.8121 147.984 19.1792 147.649 19.565C147.325 19.9507 146.896 20.2743 146.361 20.5356C145.826 20.7969 145.141 20.9276 144.308 20.9276ZM141.62 15.1224H146.715C146.666 14.4255 146.417 13.8842 145.969 13.4984C145.521 13.1002 144.936 12.9011 144.215 12.9011C143.493 12.9011 142.902 13.1002 142.442 13.4984C141.994 13.8842 141.72 14.4255 141.62 15.1224Z" fill="white"/>
<path d="M150.989 20.6663V7.59986H152.911V20.6663H150.989Z" fill="white"/>
<path d="M154.01 24.3995V22.7382H155.26C155.621 22.7382 155.801 22.5516 155.801 22.1783V11.4638H157.723V22.5516C157.723 23.1116 157.562 23.5596 157.238 23.8956C156.915 24.2315 156.461 24.3995 155.876 24.3995H154.01ZM156.772 10.2131C156.398 10.2131 156.081 10.0949 155.82 9.85848C155.571 9.6096 155.447 9.29227 155.447 8.9065C155.447 8.52073 155.571 8.20962 155.82 7.97318C156.081 7.7243 156.398 7.59986 156.772 7.59986C157.157 7.59986 157.475 7.7243 157.723 7.97318C157.972 8.20962 158.097 8.52073 158.097 8.9065C158.097 9.29227 157.972 9.6096 157.723 9.85848C157.475 10.0949 157.157 10.2131 156.772 10.2131Z" fill="white"/>
<path d="M160.575 20.6663V11.4638H162.498V20.6663H160.575ZM161.546 10.2131C161.173 10.2131 160.855 10.0949 160.594 9.85848C160.345 9.6096 160.221 9.29227 160.221 8.9065C160.221 8.52073 160.345 8.20962 160.594 7.97318C160.855 7.7243 161.173 7.59986 161.546 7.59986C161.931 7.59986 162.249 7.7243 162.498 7.97318C162.746 8.20962 162.871 8.52073 162.871 8.9065C162.871 9.29227 162.746 9.6096 162.498 9.85848C162.249 10.0949 161.931 10.2131 161.546 10.2131Z" fill="white"/>
<path d="M166.507 20.9276C166.072 20.9276 165.705 20.7845 165.406 20.4983C165.12 20.2121 164.977 19.845 164.977 19.397C164.977 18.949 165.12 18.5881 165.406 18.3143C165.705 18.0281 166.072 17.885 166.507 17.885C166.943 17.885 167.304 18.0281 167.59 18.3143C167.888 18.6005 168.038 18.9614 168.038 19.397C168.038 19.845 167.888 20.2121 167.59 20.4983C167.304 20.7845 166.943 20.9276 166.507 20.9276Z" fill="white"/>
<path d="M170.508 20.6663V11.4638H172.393V12.5464H172.692C172.841 12.1607 173.077 11.8807 173.401 11.7064C173.737 11.5198 174.147 11.4265 174.632 11.4265H175.734V13.1624H174.558C173.936 13.1624 173.426 13.3366 173.027 13.6851C172.629 14.0211 172.43 14.5437 172.43 15.253V20.6663H170.508Z" fill="white"/>
<path d="M181.295 20.9276C180.125 20.9276 179.155 20.6663 178.383 20.1436C177.612 19.621 177.139 18.8308 176.965 17.773L178.757 17.3437C178.856 17.8539 179.024 18.2583 179.26 18.557C179.497 18.8556 179.789 19.0672 180.138 19.1916C180.498 19.3161 180.884 19.3783 181.295 19.3783C181.904 19.3783 182.371 19.2601 182.694 19.0236C183.03 18.7872 183.198 18.4823 183.198 18.109C183.198 17.7357 183.043 17.4619 182.732 17.2877C182.421 17.1135 181.96 16.9704 181.351 16.8584L180.716 16.7464C180.094 16.6344 179.528 16.4726 179.018 16.261C178.508 16.0495 178.103 15.757 177.805 15.3837C177.506 15.0104 177.357 14.5313 177.357 13.9464C177.357 13.0753 177.68 12.4033 178.327 11.9304C178.974 11.4451 179.833 11.2025 180.903 11.2025C181.935 11.2025 182.781 11.4389 183.441 11.9118C184.113 12.3722 184.548 13.0006 184.747 13.7971L182.956 14.3011C182.844 13.7411 182.607 13.3491 182.246 13.1251C181.886 12.8886 181.438 12.7704 180.903 12.7704C180.38 12.7704 179.97 12.87 179.671 13.0691C179.372 13.2558 179.223 13.5233 179.223 13.8717C179.223 14.2451 179.366 14.5188 179.652 14.6931C179.951 14.8673 180.349 14.9979 180.847 15.0851L181.5 15.197C182.159 15.309 182.763 15.4646 183.31 15.6637C183.858 15.8628 184.287 16.149 184.598 16.5224C184.921 16.8957 185.083 17.3935 185.083 18.0157C185.083 18.9365 184.741 19.6521 184.057 20.1623C183.372 20.6725 182.452 20.9276 181.295 20.9276Z" fill="white"/>
<path d="M64.7847 41.9992V40.2232L71.0233 32.1914V31.9994H64.9766V30.7994H72.351V32.5754L66.1124 40.6072V40.7992H72.479V41.9992H64.7847Z" fill="white"/>
<path d="M76.9444 42.2232C76.4005 42.2232 75.9046 42.1272 75.4567 41.9352C75.0088 41.7432 74.6569 41.4659 74.401 41.1032C74.145 40.7406 74.017 40.2979 74.017 39.7753C74.017 39.2419 74.145 38.8046 74.401 38.4633C74.6569 38.1113 75.0088 37.85 75.4567 37.6793C75.9046 37.498 76.4059 37.4073 76.9604 37.4073H79.5998V36.8313C79.5998 36.2767 79.4345 35.8393 79.1039 35.5193C78.784 35.1993 78.3041 35.0393 77.6643 35.0393C77.0351 35.0393 76.5445 35.194 76.1926 35.5033C75.8406 35.802 75.6007 36.2073 75.4727 36.7193L74.289 36.3353C74.417 35.898 74.6196 35.5033 74.8969 35.1513C75.1741 34.7887 75.542 34.5007 76.0006 34.2874C76.4698 34.0634 77.0297 33.9514 77.6803 33.9514C78.6827 33.9514 79.4612 34.2127 80.0157 34.7354C80.5703 35.2473 80.8476 35.9727 80.8476 36.9113V40.4472C80.8476 40.7672 80.9969 40.9272 81.2955 40.9272H82.0153V41.9992H80.9116C80.5596 41.9992 80.277 41.9032 80.0637 41.7112C79.8504 41.5086 79.7438 41.2419 79.7438 40.9112V40.8312H79.5518C79.4345 41.0339 79.2746 41.2472 79.072 41.4712C78.88 41.6846 78.6134 41.8606 78.2721 41.9992C77.9309 42.1485 77.4883 42.2232 76.9444 42.2232ZM77.0884 41.1352C77.8349 41.1352 78.4374 40.9166 78.896 40.4792C79.3652 40.0313 79.5998 39.4073 79.5998 38.6073V38.4313H77.0084C76.5072 38.4313 76.0913 38.5433 75.7607 38.7673C75.4407 38.9806 75.2808 39.3059 75.2808 39.7433C75.2808 40.1806 75.4461 40.5219 75.7767 40.7672C76.1179 41.0126 76.5552 41.1352 77.0884 41.1352Z" fill="white"/>
<path d="M82.2104 45.1992V44.0792H83.2982C83.6181 44.0792 83.7781 43.9192 83.7781 43.5992V34.1754H85.0418V43.8232C85.0418 44.2498 84.9191 44.5858 84.6739 44.8312C84.4392 45.0765 84.098 45.1992 83.6501 45.1992H82.2104ZM84.4179 32.9594C84.1406 32.9594 83.906 32.8687 83.7141 32.6874C83.5328 32.5061 83.4421 32.2767 83.4421 31.9994C83.4421 31.7114 83.5328 31.4767 83.7141 31.2954C83.906 31.1141 84.1406 31.0234 84.4179 31.0234C84.6952 31.0234 84.9245 31.1141 85.1058 31.2954C85.2871 31.4767 85.3777 31.7114 85.3777 31.9994C85.3777 32.2767 85.2871 32.5061 85.1058 32.6874C84.9245 32.8687 84.6952 32.9594 84.4179 32.9594Z" fill="white"/>
<path d="M91.2816 42.2232C90.4924 42.2232 89.7992 42.0579 89.202 41.7272C88.6048 41.3859 88.1409 40.9112 87.8103 40.3032C87.4797 39.6953 87.3144 38.9913 87.3144 38.1913V37.9993C87.3144 37.1886 87.4797 36.4793 87.8103 35.8713C88.1409 35.2633 88.5995 34.794 89.186 34.4634C89.7725 34.122 90.4444 33.9514 91.2016 33.9514C91.9374 33.9514 92.5879 34.1114 93.1531 34.4314C93.7184 34.7407 94.1609 35.1887 94.4809 35.7753C94.8008 36.362 94.9608 37.05 94.9608 37.8393V38.4153H88.5781C88.6101 39.2579 88.8821 39.9193 89.394 40.3992C89.9059 40.8686 90.5457 41.1032 91.3135 41.1032C91.9854 41.1032 92.5026 40.9486 92.8652 40.6392C93.2278 40.3299 93.5051 39.9619 93.697 39.5353L94.7848 40.0633C94.6248 40.3939 94.4009 40.7246 94.1129 41.0552C93.8357 41.3859 93.4678 41.6632 93.0092 41.8872C92.5613 42.1112 91.9854 42.2232 91.2816 42.2232ZM88.5941 37.3753H93.681C93.6384 36.65 93.3878 36.0847 92.9292 35.6793C92.4813 35.274 91.9054 35.0713 91.2016 35.0713C90.4871 35.0713 89.9005 35.274 89.442 35.6793C88.9834 36.0847 88.7008 36.65 88.5941 37.3753Z" fill="white"/>
<path d="M100.476 42.2232C99.8045 42.2232 99.1859 42.0632 98.6207 41.7432C98.0555 41.4232 97.6076 40.9592 97.277 40.3512C96.9464 39.7433 96.7811 39.0233 96.7811 38.1913V37.9833C96.7811 37.1513 96.9464 36.4367 97.277 35.8393C97.6076 35.2313 98.0502 34.7674 98.6047 34.4474C99.1699 34.1167 99.7938 33.9514 100.476 33.9514C101.02 33.9514 101.479 34.026 101.852 34.1754C102.236 34.314 102.545 34.4954 102.78 34.7194C103.014 34.9327 103.196 35.162 103.324 35.4073H103.548V30.7994H104.811V41.9992H103.58V40.7032H103.356C103.142 41.0979 102.812 41.4499 102.364 41.7592C101.916 42.0685 101.287 42.2232 100.476 42.2232ZM100.812 41.1032C101.623 41.1032 102.279 40.8472 102.78 40.3352C103.292 39.8126 103.548 39.0873 103.548 38.1593V38.0153C103.548 37.0873 103.292 36.3673 102.78 35.8553C102.279 35.3327 101.623 35.0713 100.812 35.0713C100.012 35.0713 99.3512 35.3327 98.8287 35.8553C98.3168 36.3673 98.0608 37.0873 98.0608 38.0153V38.1593C98.0608 39.0873 98.3168 39.8126 98.8287 40.3352C99.3512 40.8472 100.012 41.1032 100.812 41.1032Z" fill="white"/>
<path d="M107.46 41.9992V34.1754H108.691V35.5033H108.915C109.086 35.13 109.374 34.794 109.779 34.4954C110.195 34.186 110.803 34.0314 111.603 34.0314C112.189 34.0314 112.712 34.154 113.17 34.3994C113.64 34.6447 114.013 35.0073 114.29 35.4873C114.567 35.9673 114.706 36.5593 114.706 37.2633V41.9992H113.442V37.3593C113.442 36.5807 113.245 36.0153 112.851 35.6633C112.467 35.3113 111.944 35.1353 111.283 35.1353C110.526 35.1353 109.907 35.3807 109.427 35.8713C108.958 36.362 108.723 37.0926 108.723 38.0633V41.9992H107.46Z" fill="white"/>
<path d="M117.27 41.9992V34.1754H118.534V41.9992H117.27ZM117.91 32.9594C117.633 32.9594 117.398 32.8687 117.206 32.6874C117.025 32.5061 116.934 32.2767 116.934 31.9994C116.934 31.7114 117.025 31.4767 117.206 31.2954C117.398 31.1141 117.633 31.0234 117.91 31.0234C118.187 31.0234 118.416 31.1141 118.598 31.2954C118.779 31.4767 118.87 31.7114 118.87 31.9994C118.87 32.2767 118.779 32.5061 118.598 32.6874C118.416 32.8687 118.187 32.9594 117.91 32.9594Z" fill="white"/>
<path d="M124.79 42.2232C124.033 42.2232 123.351 42.0632 122.743 41.7432C122.146 41.4126 121.671 40.9432 121.319 40.3352C120.978 39.7273 120.807 39.0073 120.807 38.1753V37.9993C120.807 37.1566 120.978 36.4367 121.319 35.8393C121.671 35.2313 122.146 34.7674 122.743 34.4474C123.351 34.1167 124.033 33.9514 124.79 33.9514C125.537 33.9514 126.171 34.09 126.694 34.3674C127.227 34.6447 127.643 35.0127 127.942 35.4713C128.251 35.93 128.448 36.4207 128.533 36.9433L127.302 37.1993C127.248 36.8153 127.12 36.4633 126.918 36.1433C126.726 35.8233 126.454 35.5673 126.102 35.3753C125.75 35.1833 125.318 35.0873 124.806 35.0873C124.284 35.0873 123.815 35.2047 123.399 35.4393C122.993 35.674 122.668 36.01 122.423 36.4473C122.188 36.8846 122.071 37.4073 122.071 38.0153V38.1593C122.071 38.7673 122.188 39.2899 122.423 39.7273C122.668 40.1646 122.993 40.5006 123.399 40.7352C123.815 40.9699 124.284 41.0872 124.806 41.0872C125.585 41.0872 126.177 40.8846 126.582 40.4792C126.998 40.0739 127.254 39.5726 127.35 38.9753L128.597 39.2473C128.48 39.7593 128.267 40.2446 127.958 40.7032C127.648 41.1619 127.227 41.5299 126.694 41.8072C126.171 42.0845 125.537 42.2232 124.79 42.2232Z" fill="white"/>
<path d="M133.151 42.2232C132.607 42.2232 132.111 42.1272 131.663 41.9352C131.215 41.7432 130.863 41.4659 130.608 41.1032C130.352 40.7406 130.224 40.2979 130.224 39.7753C130.224 39.2419 130.352 38.8046 130.608 38.4633C130.863 38.1113 131.215 37.85 131.663 37.6793C132.111 37.498 132.612 37.4073 133.167 37.4073H135.806V36.8313C135.806 36.2767 135.641 35.8393 135.311 35.5193C134.991 35.1993 134.511 35.0393 133.871 35.0393C133.242 35.0393 132.751 35.194 132.399 35.5033C132.047 35.802 131.807 36.2073 131.679 36.7193L130.496 36.3353C130.624 35.898 130.826 35.5033 131.103 35.1513C131.381 34.7887 131.749 34.5007 132.207 34.2874C132.676 34.0634 133.236 33.9514 133.887 33.9514C134.889 33.9514 135.668 34.2127 136.222 34.7354C136.777 35.2473 137.054 35.9727 137.054 36.9113V40.4472C137.054 40.7672 137.203 40.9272 137.502 40.9272H138.222V41.9992H137.118C136.766 41.9992 136.484 41.9032 136.27 41.7112C136.057 41.5086 135.95 41.2419 135.95 40.9112V40.8312H135.758C135.641 41.0339 135.481 41.2472 135.279 41.4712C135.087 41.6846 134.82 41.8606 134.479 41.9992C134.137 42.1485 133.695 42.2232 133.151 42.2232ZM133.295 41.1352C134.041 41.1352 134.644 40.9166 135.103 40.4792C135.572 40.0313 135.806 39.4073 135.806 38.6073V38.4313H133.215C132.714 38.4313 132.298 38.5433 131.967 38.7673C131.647 38.9806 131.487 39.3059 131.487 39.7433C131.487 40.1806 131.653 40.5219 131.983 40.7672C132.324 41.0126 132.762 41.1352 133.295 41.1352Z" fill="white"/>
<path d="M148.396 42.2232C147.586 42.2232 146.951 42.0685 146.493 41.7592C146.045 41.4499 145.719 41.0979 145.517 40.7032H145.293V41.9992H144.061V30.7994H145.325V35.4073H145.549C145.677 35.162 145.858 34.9327 146.093 34.7194C146.327 34.4954 146.631 34.314 147.004 34.1754C147.388 34.026 147.852 33.9514 148.396 33.9514C149.079 33.9514 149.697 34.1167 150.252 34.4474C150.817 34.7674 151.265 35.2313 151.595 35.8393C151.926 36.4367 152.091 37.1513 152.091 37.9833V38.1913C152.091 39.0233 151.921 39.7433 151.579 40.3512C151.249 40.9592 150.801 41.4232 150.236 41.7432C149.681 42.0632 149.068 42.2232 148.396 42.2232ZM148.06 41.1032C148.871 41.1032 149.527 40.8472 150.028 40.3352C150.54 39.8126 150.796 39.0873 150.796 38.1593V38.0153C150.796 37.0873 150.54 36.3673 150.028 35.8553C149.527 35.3327 148.871 35.0713 148.06 35.0713C147.26 35.0713 146.599 35.3327 146.077 35.8553C145.565 36.3673 145.309 37.0873 145.309 38.0153V38.1593C145.309 39.0873 145.565 39.8126 146.077 40.3352C146.599 40.8472 147.26 41.1032 148.06 41.1032Z" fill="white"/>
<path d="M154.356 41.9992V30.7994H155.619V41.9992H154.356Z" fill="white"/>
<path d="M158.277 41.9992V34.1754H159.541V41.9992H158.277ZM158.917 32.9594C158.639 32.9594 158.405 32.8687 158.213 32.6874C158.032 32.5061 157.941 32.2767 157.941 31.9994C157.941 31.7114 158.032 31.4767 158.213 31.2954C158.405 31.1141 158.639 31.0234 158.917 31.0234C159.194 31.0234 159.423 31.1141 159.605 31.2954C159.786 31.4767 159.876 31.7114 159.876 31.9994C159.876 32.2767 159.786 32.5061 159.605 32.6874C159.423 32.8687 159.194 32.9594 158.917 32.9594Z" fill="white"/>
<path d="M161.846 41.9992V40.3672L166.821 35.4553V35.2793H162.006V34.1754H168.149V35.8073L163.158 40.7192V40.9112H168.277V41.9992H161.846ZM164.181 33.1194L162.198 30.9434H163.638L164.837 32.2714H165.061L166.277 30.9434H167.701L165.733 33.1194H164.181Z" fill="white"/>
<path d="M170.54 41.9992V34.1754H171.771V35.5033H171.995C172.166 35.13 172.454 34.794 172.859 34.4954C173.275 34.186 173.883 34.0314 174.683 34.0314C175.269 34.0314 175.792 34.154 176.251 34.3994C176.72 34.6447 177.093 35.0073 177.37 35.4873C177.648 35.9673 177.786 36.5593 177.786 37.2633V41.9992H176.522V37.3593C176.522 36.5807 176.325 36.0153 175.931 35.6633C175.547 35.3113 175.024 35.1353 174.363 35.1353C173.606 35.1353 172.987 35.3807 172.507 35.8713C172.038 36.362 171.803 37.0926 171.803 38.0633V41.9992H170.54Z" fill="white"/>
<path d="M178.814 45.1992V44.0792H179.902C180.222 44.0792 180.382 43.9192 180.382 43.5992V34.1754H181.646V43.8232C181.646 44.2498 181.523 44.5858 181.278 44.8312C181.043 45.0765 180.702 45.1992 180.254 45.1992H178.814ZM181.022 32.9594C180.745 32.9594 180.51 32.8687 180.318 32.6874C180.137 32.5061 180.046 32.2767 180.046 31.9994C180.046 31.7114 180.137 31.4767 180.318 31.2954C180.51 31.1141 180.745 31.0234 181.022 31.0234C181.299 31.0234 181.529 31.1141 181.71 31.2954C181.891 31.4767 181.982 31.7114 181.982 31.9994C181.982 32.2767 181.891 32.5061 181.71 32.6874C181.529 32.8687 181.299 32.9594 181.022 32.9594Z" fill="white"/>
<path d="M184.302 41.9992V34.1754H185.566V41.9992H184.302ZM184.942 32.9594C184.665 32.9594 184.43 32.8687 184.238 32.6874C184.057 32.5061 183.966 32.2767 183.966 31.9994C183.966 31.7114 184.057 31.4767 184.238 31.2954C184.43 31.1141 184.665 31.0234 184.942 31.0234C185.22 31.0234 185.449 31.1141 185.63 31.2954C185.811 31.4767 185.902 31.7114 185.902 31.9994C185.902 32.2767 185.811 32.5061 185.63 32.6874C185.449 32.8687 185.22 32.9594 184.942 32.9594Z" fill="white"/>
<path d="M188.223 41.9992V30.7994H189.487V35.4233H189.711C189.818 35.1887 189.978 34.97 190.191 34.7674C190.415 34.554 190.698 34.378 191.039 34.2394C191.391 34.1007 191.833 34.0314 192.367 34.0314C192.953 34.0314 193.476 34.1594 193.934 34.4154C194.403 34.6607 194.777 35.0233 195.054 35.5033C195.331 35.9727 195.47 36.5593 195.47 37.2633V41.9992H194.206V37.3593C194.206 36.5807 194.009 36.0153 193.614 35.6633C193.23 35.3113 192.708 35.1353 192.047 35.1353C191.289 35.1353 190.671 35.3807 190.191 35.8713C189.722 36.362 189.487 37.0926 189.487 38.0633V41.9992H188.223Z" fill="white"/>
</svg>
