<svg width="203" height="48" viewBox="0 0 203 48" fill="none" xmlns="http://www.w3.org/2000/svg">
<path d="M44.3049 10.416C43.8521 9.96316 43.3238 9.73674 42.6445 9.73674H34.7197L37.5123 6.94419C38.418 6.0385 38.418 4.60449 37.5123 3.6988C36.6066 2.79311 35.0971 2.79311 34.2669 3.6988L27.4742 10.4915C27.0213 10.9443 26.7949 11.5481 26.7949 12.1519C26.7949 12.7557 27.0213 13.3595 27.4742 13.8123C27.7006 14.0388 27.927 14.1897 28.2289 14.3407C28.5308 14.4916 28.8327 14.4916 29.1346 14.4916L42.6445 14.4161C43.9276 14.4161 44.9842 13.3595 44.9842 12.0764C44.9842 11.3972 44.7578 10.8688 44.3049 10.416Z" fill="white"/>
<path d="M47.2472 27.0926L41.5866 21.5075H45.5868C46.8698 21.5075 47.9265 20.4509 47.9265 19.1678C47.9265 17.8848 46.8698 16.8281 45.5868 16.8281H36.077C34.7939 16.8281 33.7373 17.8848 33.7373 19.1678C33.7373 19.4697 33.8128 19.6961 33.8883 19.9226C33.9637 20.2245 34.1901 20.5264 34.4166 20.8283L44.0018 30.338C44.4546 30.7909 44.983 31.0173 45.6622 31.0173C46.266 31.0173 46.8698 30.7909 47.3227 30.338C47.7755 29.8852 48.0019 29.2814 48.0019 28.6776C48.0019 28.1493 47.7 27.5455 47.2472 27.0926Z" fill="white"/>
<path d="M44.303 34.2676L37.5103 27.4749C37.1329 27.0975 36.6046 26.8711 36.0763 26.8711C36.0008 26.8711 35.9254 26.8711 35.8499 26.8711C35.6989 26.8711 35.6235 26.8711 35.548 26.8711H35.4725C35.397 26.8711 35.3216 26.8711 35.2461 26.9466C35.1706 26.9466 35.0951 27.022 35.0197 27.022C34.7932 27.0975 34.4914 27.2485 34.3404 27.4749C34.1895 27.6258 34.0385 27.8523 33.8876 28.0787C33.7366 28.3806 33.6611 28.7579 33.6611 29.1353L33.7366 42.6452C33.7366 43.9283 34.7932 44.9849 36.0763 44.9849C37.3594 44.9849 38.416 43.9283 38.416 42.6452V34.7204L41.2086 37.513C41.6614 37.9658 42.2652 38.1922 42.869 38.1922C43.4728 38.1922 44.0766 37.9658 44.5294 37.513C44.9823 37.0601 45.2087 36.4563 45.2087 35.8525C44.9823 35.3242 44.7558 34.7204 44.303 34.2676Z" fill="white"/>
<path d="M28.7547 33.7344C28.5283 33.7344 28.3774 33.7344 28.1509 33.8099C27.7736 33.8853 27.3962 34.1117 27.0943 34.4136L17.5845 43.9989C17.1317 44.4517 16.9053 45.0555 16.9053 45.6593C16.9053 46.2631 17.1317 46.8669 17.5845 47.3197C18.0374 47.7726 18.5657 47.999 19.245 47.999C19.8488 47.999 20.4526 47.7726 20.9054 47.3197L26.4905 41.6592V45.6593C26.4905 46.9424 27.5471 47.999 28.8302 47.999C30.1133 47.999 31.1699 46.9424 31.1699 45.6593V36.0741C31.0944 34.791 30.0378 33.7344 28.7547 33.7344Z" fill="white"/>
<path d="M20.4544 34.2613C20.2279 34.0349 19.926 33.8839 19.6996 33.733C19.3977 33.582 19.0958 33.582 18.7939 33.582H5.28404C4.00097 33.582 2.94434 34.6387 2.94434 35.9217C2.94434 36.5255 3.17076 37.1293 3.6236 37.5822C4.07645 38.035 4.68024 38.2614 5.28404 38.2614H13.2088L10.4163 41.054C9.51059 41.9597 9.51059 43.3937 10.4163 44.2994C10.8691 44.7522 11.4729 44.9786 12.0767 44.9786C12.6805 44.9786 13.2843 44.7522 13.7371 44.2994L20.5298 37.5067C20.9827 37.0538 21.2091 36.4501 21.2091 35.8463C21.1336 35.3179 20.9072 34.7141 20.4544 34.2613Z" fill="white"/>
<path d="M14.1137 28.001C14.0382 27.6991 13.8118 27.3972 13.5854 27.1707L3.92466 17.5855C3.54729 17.1327 2.94349 16.9062 2.3397 16.9062C1.73591 16.9062 1.13211 17.1327 0.679268 17.5855C-0.226423 18.4912 -0.226423 20.0007 0.679268 20.8309L6.33983 26.416H2.3397C1.05664 26.4915 4.49861e-08 27.4726 4.49861e-08 28.7557C4.49861e-08 30.0388 1.05664 31.0954 2.3397 31.0954H11.9249C13.208 31.0954 14.2646 30.0388 14.2646 28.7557C14.2646 28.5293 14.1892 28.2274 14.1137 28.001Z" fill="white"/>
<path d="M14.4161 18.7949L14.3407 5.28501C14.3407 4.00195 13.284 2.94531 12.001 2.94531C10.7179 2.94531 9.66126 4.00195 9.66126 5.28501V13.2098L6.86872 10.4173C5.96303 9.51157 4.52902 9.51157 3.62333 10.4173C3.24595 10.8701 3.01953 11.4739 3.01953 12.0777C3.01953 12.6815 3.24595 13.2853 3.6988 13.7381L10.4915 20.5308C10.9443 20.9836 11.5481 21.2101 12.1519 21.2101C12.7557 21.2101 13.3595 20.9836 13.8123 20.5308C13.9633 20.3799 14.1142 20.1534 14.2652 19.927C14.3407 19.5496 14.4161 19.1723 14.4161 18.7949Z" fill="white"/>
<path d="M30.4152 0.679268C29.5095 -0.226423 28.0755 -0.226423 27.1698 0.679268L21.5092 6.33983V2.3397C21.5092 1.05664 20.4526 4.49861e-08 19.1695 4.49861e-08C17.8864 4.49861e-08 16.9053 1.05664 16.9053 2.3397V11.9249C16.9053 13.208 17.9619 14.2646 19.245 14.2646C19.4714 14.2646 19.6978 14.1892 19.8488 14.1892C20.2261 14.1137 20.6035 13.8873 20.9054 13.5854L30.4152 4.00013C31.3208 3.09444 31.3208 1.58496 30.4152 0.679268Z" fill="white"/>
<path d="M44.3049 10.4121C43.8521 9.95925 43.3238 9.73283 42.6445 9.73283H34.7197L37.5123 6.94028C38.418 6.03459 38.418 4.60058 37.5123 3.69489C36.6066 2.7892 35.0971 2.7892 34.2669 3.69489L27.4742 10.4876C27.0213 10.9404 26.7949 11.5442 26.7949 12.148C26.7949 12.7518 27.0213 13.3556 27.4742 13.8084C27.7006 14.0349 27.927 14.1858 28.2289 14.3368C28.5308 14.4877 28.8327 14.4877 29.1346 14.4877L42.6445 14.4122C43.9276 14.4122 44.9842 13.3556 44.9842 12.0725C44.9842 11.3933 44.7578 10.8649 44.3049 10.4121Z" fill="white"/>
<path d="M47.2472 27.0926L41.5866 21.5075H45.5868C46.8698 21.5075 47.9265 20.4509 47.9265 19.1678C47.9265 17.8848 46.8698 16.8281 45.5868 16.8281H36.077C34.7939 16.8281 33.7373 17.8848 33.7373 19.1678C33.7373 19.4697 33.8128 19.6961 33.8883 19.9226C33.9637 20.2245 34.1901 20.5264 34.4166 20.8283L44.0018 30.338C44.4546 30.7909 44.983 31.0173 45.6622 31.0173C46.266 31.0173 46.8698 30.7909 47.3227 30.338C47.7755 29.8852 48.0019 29.2814 48.0019 28.6776C48.0019 28.1493 47.7 27.5455 47.2472 27.0926Z" fill="white"/>
<circle cx="24.0016" cy="24.0055" r="5.3336" fill="white"/>
<path d="M44.303 34.2637L37.5103 27.471C37.1329 27.0936 36.6046 26.8672 36.0763 26.8672C36.0008 26.8672 35.9254 26.8672 35.8499 26.8672C35.6989 26.8672 35.6235 26.8672 35.548 26.8672H35.4725C35.397 26.8672 35.3216 26.8672 35.2461 26.9427C35.1706 26.9427 35.0951 27.0181 35.0197 27.0181C34.7932 27.0936 34.4914 27.2446 34.3404 27.471C34.1895 27.6219 34.0385 27.8484 33.8876 28.0748C33.7366 28.3767 33.6611 28.754 33.6611 29.1314L33.7366 42.6413C33.7366 43.9244 34.7932 44.981 36.0763 44.981C37.3594 44.981 38.416 43.9244 38.416 42.6413V34.7165L41.2086 37.5091C41.6614 37.9619 42.2652 38.1883 42.869 38.1883C43.4728 38.1883 44.0766 37.9619 44.5294 37.5091C44.9823 37.0562 45.2087 36.4524 45.2087 35.8486C44.9823 35.3203 44.7558 34.7165 44.303 34.2637Z" fill="white"/>
<path d="M28.7547 33.7344C28.5283 33.7344 28.3774 33.7344 28.1509 33.8099C27.7736 33.8853 27.3962 34.1117 27.0943 34.4136L17.5845 43.9989C17.1317 44.4517 16.9053 45.0555 16.9053 45.6593C16.9053 46.2631 17.1317 46.8669 17.5845 47.3197C18.0374 47.7726 18.5657 47.999 19.245 47.999C19.8488 47.999 20.4526 47.7726 20.9054 47.3197L26.4905 41.6592V45.6593C26.4905 46.9424 27.5471 47.999 28.8302 47.999C30.1133 47.999 31.1699 46.9424 31.1699 45.6593V36.0741C31.0944 34.791 30.0378 33.7344 28.7547 33.7344Z" fill="white"/>
<path d="M20.4544 34.2613C20.2279 34.0349 19.926 33.8839 19.6996 33.733C19.3977 33.582 19.0958 33.582 18.7939 33.582H5.28404C4.00097 33.582 2.94434 34.6387 2.94434 35.9217C2.94434 36.5255 3.17076 37.1293 3.6236 37.5822C4.07645 38.035 4.68024 38.2614 5.28404 38.2614H13.2088L10.4163 41.054C9.51059 41.9597 9.51059 43.3937 10.4163 44.2994C10.8691 44.7522 11.4729 44.9786 12.0767 44.9786C12.6805 44.9786 13.2843 44.7522 13.7371 44.2994L20.5298 37.5067C20.9827 37.0538 21.2091 36.4501 21.2091 35.8463C21.1336 35.3179 20.9072 34.7141 20.4544 34.2613Z" fill="white"/>
<path d="M14.1137 28.001C14.0382 27.6991 13.8118 27.3972 13.5854 27.1707L3.92466 17.5855C3.54729 17.1327 2.94349 16.9062 2.3397 16.9062C1.73591 16.9062 1.13211 17.1327 0.679268 17.5855C-0.226423 18.4912 -0.226423 20.0007 0.679268 20.8309L6.33983 26.416H2.3397C1.05664 26.4915 4.49861e-08 27.4726 4.49861e-08 28.7557C4.49861e-08 30.0388 1.05664 31.0954 2.3397 31.0954H11.9249C13.208 31.0954 14.2646 30.0388 14.2646 28.7557C14.2646 28.5293 14.1892 28.2274 14.1137 28.001Z" fill="white"/>
<path d="M14.4161 18.7949L14.3407 5.28501C14.3407 4.00195 13.284 2.94531 12.001 2.94531C10.7179 2.94531 9.66126 4.00195 9.66126 5.28501V13.2098L6.86872 10.4173C5.96303 9.51157 4.52902 9.51157 3.62333 10.4173C3.24595 10.8701 3.01953 11.4739 3.01953 12.0777C3.01953 12.6815 3.24595 13.2853 3.6988 13.7381L10.4915 20.5308C10.9443 20.9836 11.5481 21.2101 12.1519 21.2101C12.7557 21.2101 13.3595 20.9836 13.8123 20.5308C13.9633 20.3799 14.1142 20.1534 14.2652 19.927C14.3407 19.5496 14.4161 19.1723 14.4161 18.7949Z" fill="white"/>
<path d="M30.4152 0.679268C29.5095 -0.226423 28.0755 -0.226423 27.1698 0.679268L21.5092 6.33983V2.3397C21.5092 1.05664 20.4526 4.49861e-08 19.1695 4.49861e-08C17.8864 4.49861e-08 16.9053 1.05664 16.9053 2.3397V11.9249C16.9053 13.208 17.9619 14.2646 19.245 14.2646C19.4714 14.2646 19.6978 14.1892 19.8488 14.1892C20.2261 14.1137 20.6035 13.8873 20.9054 13.5854L30.4152 4.00013C31.3208 3.09444 31.3208 1.58496 30.4152 0.679268Z" fill="white"/>
<path d="M65.024 21.5039V11.7039H67.936L70.596 20.4959H70.82V11.7039H72.318V21.5039H69.406L66.746 12.6979H66.522V21.5039H65.024ZM74.3618 21.5039V11.7039H80.5358V13.0759H75.8738V15.8899H80.1438V17.2619H75.8738V20.1319H80.6058V21.5039H74.3618ZM85.5842 21.6999C84.8842 21.6999 84.2588 21.5506 83.7082 21.2519C83.1575 20.9439 82.7235 20.4959 82.4062 19.9079C82.0888 19.3199 81.9302 18.6012 81.9302 17.7519V15.4559C81.9302 14.1772 82.2802 13.2019 82.9802 12.5299C83.6802 11.8486 84.6275 11.5079 85.8222 11.5079C86.9982 11.5079 87.9035 11.8299 88.5382 12.4739C89.1728 13.1086 89.4902 13.9626 89.4902 15.0359V15.1059H87.9922V14.9939C87.9922 14.5926 87.9128 14.2332 87.7542 13.9159C87.5955 13.5892 87.3575 13.3326 87.0402 13.1459C86.7228 12.9592 86.3168 12.8659 85.8222 12.8659C85.0755 12.8659 84.4922 13.0946 84.0722 13.5519C83.6522 13.9999 83.4422 14.6252 83.4422 15.4279V17.7799C83.4422 18.5732 83.6522 19.2032 84.0722 19.6699C84.4922 20.1272 85.0802 20.3559 85.8362 20.3559C86.5828 20.3559 87.1288 20.1506 87.4742 19.7399C87.8195 19.3292 87.9922 18.7972 87.9922 18.1439V17.9619H85.3602V16.6599H89.4902V21.5039H88.0902V20.5099H87.8662C87.7822 20.6872 87.6562 20.8692 87.4882 21.0559C87.3295 21.2426 87.0962 21.3966 86.7882 21.5179C86.4895 21.6392 86.0882 21.6999 85.5842 21.6999ZM95.12 21.6999C93.916 21.6999 92.9593 21.3639 92.25 20.6919C91.5407 20.0106 91.186 19.0306 91.186 17.7519V15.4559C91.186 14.1772 91.5407 13.2019 92.25 12.5299C92.9593 11.8486 93.916 11.5079 95.12 11.5079C96.324 11.5079 97.2807 11.8486 97.99 12.5299C98.7087 13.2019 99.068 14.1772 99.068 15.4559V17.7519C99.068 19.0306 98.7087 20.0106 97.99 20.6919C97.2807 21.3639 96.324 21.6999 95.12 21.6999ZM95.12 20.3419C95.8947 20.3419 96.492 20.1179 96.912 19.6699C97.332 19.2126 97.542 18.5919 97.542 17.8079V15.3999C97.542 14.6159 97.332 13.9999 96.912 13.5519C96.492 13.0946 95.8947 12.8659 95.12 12.8659C94.364 12.8659 93.7713 13.0946 93.342 13.5519C92.9127 13.9999 92.698 14.6159 92.698 15.3999V17.8079C92.698 18.5919 92.9127 19.2126 93.342 19.6699C93.7713 20.1179 94.364 20.3419 95.12 20.3419ZM102.655 21.5039L99.9249 11.7039H101.493L103.873 20.5519H104.055L106.421 11.7039H107.989L105.273 21.5039H102.655ZM107.909 21.5039L110.709 11.7039H113.369L116.155 21.5039H114.601L113.957 19.1939H110.121L109.477 21.5039H107.909ZM110.499 17.7939H113.579L112.151 12.6419H111.927L110.499 17.7939ZM118.85 21.5039V13.0759H115.84V11.7039H123.372V13.0759H120.362V21.5039H118.85ZM124.743 21.5039V11.7039H130.917V13.0759H126.255V15.8899H130.525V17.2619H126.255V20.1319H130.987V21.5039H124.743ZM132.563 21.5039V11.7039H134.075V20.1319H138.793V21.5039H132.563ZM142.866 21.6999C141.886 21.6999 141.107 21.4292 140.528 20.8879C139.95 20.3372 139.66 19.5626 139.66 18.5639V17.7239H141.172V18.5639C141.172 19.0866 141.312 19.5066 141.592 19.8239C141.882 20.1319 142.297 20.2859 142.838 20.2859C143.361 20.2859 143.748 20.1319 144 19.8239C144.252 19.5159 144.378 19.0959 144.378 18.5639V13.0759H142.67V11.7039H146.982V13.0759H145.89V18.5639C145.89 19.5812 145.624 20.3606 145.092 20.9019C144.57 21.4339 143.828 21.6999 142.866 21.6999ZM148.6 21.5039V11.7039H150.112V21.5039H148.6ZM153.065 21.6999C152.738 21.6999 152.463 21.5926 152.239 21.3779C152.024 21.1632 151.917 20.8879 151.917 20.5519C151.917 20.2159 152.024 19.9452 152.239 19.7399C152.463 19.5252 152.738 19.4179 153.065 19.4179C153.391 19.4179 153.662 19.5252 153.877 19.7399C154.101 19.9546 154.213 20.2252 154.213 20.5519C154.213 20.8879 154.101 21.1632 153.877 21.3779C153.662 21.5926 153.391 21.6999 153.065 21.6999ZM156.066 21.5039V14.6019H157.48V15.4139H157.704C157.816 15.1246 157.993 14.9146 158.236 14.7839C158.488 14.6439 158.796 14.5739 159.16 14.5739H159.986V15.8759H159.104C158.637 15.8759 158.255 16.0066 157.956 16.2679C157.657 16.5199 157.508 16.9119 157.508 17.4439V21.5039H156.066ZM164.158 21.6999C163.28 21.6999 162.552 21.5039 161.974 21.1119C161.395 20.7199 161.04 20.1272 160.91 19.3339L162.254 19.0119C162.328 19.3946 162.454 19.6979 162.632 19.9219C162.809 20.1459 163.028 20.3046 163.29 20.3979C163.56 20.4912 163.85 20.5379 164.158 20.5379C164.615 20.5379 164.965 20.4492 165.208 20.2719C165.46 20.0946 165.586 19.8659 165.586 19.5859C165.586 19.3059 165.469 19.1006 165.236 18.9699C165.002 18.8392 164.657 18.7319 164.2 18.6479L163.724 18.5639C163.257 18.4799 162.832 18.3586 162.45 18.1999C162.067 18.0412 161.764 17.8219 161.54 17.5419C161.316 17.2619 161.204 16.9026 161.204 16.4639C161.204 15.8106 161.446 15.3066 161.932 14.9519C162.417 14.5879 163.061 14.4059 163.864 14.4059C164.638 14.4059 165.273 14.5832 165.768 14.9379C166.272 15.2832 166.598 15.7546 166.748 16.3519L165.404 16.7299C165.32 16.3099 165.142 16.0159 164.872 15.8479C164.601 15.6706 164.265 15.5819 163.864 15.5819C163.472 15.5819 163.164 15.6566 162.94 15.8059C162.716 15.9459 162.604 16.1466 162.604 16.4079C162.604 16.6879 162.711 16.8932 162.926 17.0239C163.15 17.1546 163.448 17.2526 163.822 17.3179L164.312 17.4019C164.806 17.4859 165.259 17.6026 165.67 17.7519C166.08 17.9012 166.402 18.1159 166.636 18.3959C166.878 18.6759 167 19.0492 167 19.5159C167 20.2066 166.743 20.7432 166.23 21.1259C165.716 21.5086 165.026 21.6999 164.158 21.6999Z" fill="white"/>
<path d="M64.602 37.5039V36.1719L69.282 30.1479V30.0039H64.746V29.1039H70.278V30.4359L65.598 36.4599V36.6039H70.374V37.5039H64.602ZM73.7237 37.6719C73.3157 37.6719 72.9437 37.5999 72.6077 37.4559C72.2717 37.3119 72.0077 37.1039 71.8157 36.8319C71.6237 36.5599 71.5277 36.2279 71.5277 35.8359C71.5277 35.4359 71.6237 35.1079 71.8157 34.8519C72.0077 34.5879 72.2717 34.3919 72.6077 34.2639C72.9437 34.1279 73.3197 34.0599 73.7357 34.0599H75.7157V33.6279C75.7157 33.2119 75.5917 32.8839 75.3437 32.6439C75.1037 32.4039 74.7437 32.2839 74.2637 32.2839C73.7917 32.2839 73.4237 32.3999 73.1597 32.6319C72.8957 32.8559 72.7157 33.1599 72.6197 33.5439L71.7317 33.2559C71.8277 32.9279 71.9797 32.6319 72.1877 32.3679C72.3957 32.0959 72.6717 31.8799 73.0157 31.7199C73.3677 31.5519 73.7877 31.4679 74.2757 31.4679C75.0277 31.4679 75.6117 31.6639 76.0277 32.0559C76.4437 32.4399 76.6517 32.9839 76.6517 33.6879V36.3399C76.6517 36.5799 76.7637 36.6999 76.9877 36.6999H77.5277V37.5039H76.6997C76.4357 37.5039 76.2237 37.4319 76.0637 37.2879C75.9037 37.1359 75.8237 36.9359 75.8237 36.6879V36.6279H75.6797C75.5917 36.7799 75.4717 36.9399 75.3197 37.1079C75.1757 37.2679 74.9757 37.3999 74.7197 37.5039C74.4637 37.6159 74.1317 37.6719 73.7237 37.6719ZM73.8317 36.8559C74.3917 36.8559 74.8437 36.6919 75.1877 36.3639C75.5397 36.0279 75.7157 35.5599 75.7157 34.9599V34.8279H73.7717C73.3957 34.8279 73.0837 34.9119 72.8357 35.0799C72.5957 35.2399 72.4757 35.4839 72.4757 35.8119C72.4757 36.1399 72.5997 36.3959 72.8477 36.5799C73.1037 36.7639 73.4317 36.8559 73.8317 36.8559ZM77.6741 39.9039V39.0639H78.4901C78.7301 39.0639 78.8501 38.9439 78.8501 38.7039V31.6359H79.7981V38.8719C79.7981 39.1919 79.7061 39.4439 79.5221 39.6279C79.3461 39.8119 79.0901 39.9039 78.7541 39.9039H77.6741ZM79.3301 30.7239C79.1221 30.7239 78.9461 30.6559 78.8021 30.5199C78.6661 30.3839 78.5981 30.2119 78.5981 30.0039C78.5981 29.7879 78.6661 29.6119 78.8021 29.4759C78.9461 29.3399 79.1221 29.2719 79.3301 29.2719C79.5381 29.2719 79.7101 29.3399 79.8461 29.4759C79.9821 29.6119 80.0501 29.7879 80.0501 30.0039C80.0501 30.2119 79.9821 30.3839 79.8461 30.5199C79.7101 30.6559 79.5381 30.7239 79.3301 30.7239ZM84.4789 37.6719C83.8869 37.6719 83.3669 37.5479 82.9189 37.2999C82.4709 37.0439 82.1229 36.6879 81.8749 36.2319C81.6269 35.7759 81.5029 35.2479 81.5029 34.6479V34.5039C81.5029 33.8959 81.6269 33.3639 81.8749 32.9079C82.1229 32.4519 82.4669 32.0999 82.9069 31.8519C83.3469 31.5959 83.8509 31.4679 84.4189 31.4679C84.9709 31.4679 85.4589 31.5879 85.8829 31.8279C86.3069 32.0599 86.6389 32.3959 86.8789 32.8359C87.1189 33.2759 87.2389 33.7919 87.2389 34.3839V34.8159H82.4509C82.4749 35.4479 82.6789 35.9439 83.0629 36.3039C83.4469 36.6559 83.9269 36.8319 84.5029 36.8319C85.0069 36.8319 85.3949 36.7159 85.6669 36.4839C85.9389 36.2519 86.1469 35.9759 86.2909 35.6559L87.1069 36.0519C86.9869 36.2999 86.8189 36.5479 86.6029 36.7959C86.3949 37.0439 86.1189 37.2519 85.7749 37.4199C85.4389 37.5879 85.0069 37.6719 84.4789 37.6719ZM82.4629 34.0359H86.2789C86.2469 33.4919 86.0589 33.0679 85.7149 32.7639C85.3789 32.4599 84.9469 32.3079 84.4189 32.3079C83.8829 32.3079 83.4429 32.4599 83.0989 32.7639C82.7549 33.0679 82.5429 33.4919 82.4629 34.0359ZM91.3765 37.6719C90.8725 37.6719 90.4085 37.5519 89.9845 37.3119C89.5605 37.0719 89.2245 36.7239 88.9765 36.2679C88.7285 35.8119 88.6045 35.2719 88.6045 34.6479V34.4919C88.6045 33.8679 88.7285 33.3319 88.9765 32.8839C89.2245 32.4279 89.5565 32.0799 89.9725 31.8399C90.3965 31.5919 90.8645 31.4679 91.3765 31.4679C91.7845 31.4679 92.1285 31.5239 92.4085 31.6359C92.6965 31.7399 92.9285 31.8759 93.1045 32.0439C93.2805 32.2039 93.4165 32.3759 93.5125 32.5599H93.6805V29.1039H94.6285V37.5039H93.7045V36.5319H93.5365C93.3765 36.8279 93.1285 37.0919 92.7925 37.3239C92.4565 37.5559 91.9845 37.6719 91.3765 37.6719ZM91.6285 36.8319C92.2365 36.8319 92.7285 36.6399 93.1045 36.2559C93.4885 35.8639 93.6805 35.3199 93.6805 34.6239V34.5159C93.6805 33.8199 93.4885 33.2799 93.1045 32.8959C92.7285 32.5039 92.2365 32.3079 91.6285 32.3079C91.0285 32.3079 90.5325 32.5039 90.1405 32.8959C89.7565 33.2799 89.5645 33.8199 89.5645 34.5159V34.6239C89.5645 35.3199 89.7565 35.8639 90.1405 36.2559C90.5325 36.6399 91.0285 36.8319 91.6285 36.8319ZM96.6151 37.5039V31.6359H97.5391V32.6319H97.7071C97.8351 32.3519 98.0511 32.0999 98.3551 31.8759C98.6671 31.6439 99.1231 31.5279 99.7231 31.5279C100.163 31.5279 100.555 31.6199 100.899 31.8039C101.251 31.9879 101.531 32.2599 101.739 32.6199C101.947 32.9799 102.051 33.4239 102.051 33.9519V37.5039H101.103V34.0239C101.103 33.4399 100.955 33.0159 100.659 32.7519C100.371 32.4879 99.9791 32.3559 99.4831 32.3559C98.9151 32.3559 98.4511 32.5399 98.0911 32.9079C97.7391 33.2759 97.5631 33.8239 97.5631 34.5519V37.5039H96.6151ZM103.975 37.5039V31.6359H104.923V37.5039H103.975ZM104.455 30.7239C104.247 30.7239 104.071 30.6559 103.927 30.5199C103.791 30.3839 103.723 30.2119 103.723 30.0039C103.723 29.7879 103.791 29.6119 103.927 29.4759C104.071 29.3399 104.247 29.2719 104.455 29.2719C104.663 29.2719 104.835 29.3399 104.971 29.4759C105.107 29.6119 105.175 29.7879 105.175 30.0039C105.175 30.2119 105.107 30.3839 104.971 30.5199C104.835 30.6559 104.663 30.7239 104.455 30.7239ZM109.616 37.6719C109.048 37.6719 108.536 37.5519 108.08 37.3119C107.632 37.0639 107.276 36.7119 107.012 36.2559C106.756 35.7999 106.628 35.2599 106.628 34.6359V34.5039C106.628 33.8719 106.756 33.3319 107.012 32.8839C107.276 32.4279 107.632 32.0799 108.08 31.8399C108.536 31.5919 109.048 31.4679 109.616 31.4679C110.176 31.4679 110.652 31.5719 111.044 31.7799C111.444 31.9879 111.756 32.2639 111.98 32.6079C112.212 32.9519 112.36 33.3199 112.424 33.7119L111.5 33.9039C111.46 33.6159 111.364 33.3519 111.212 33.1119C111.068 32.8719 110.864 32.6799 110.6 32.5359C110.336 32.3919 110.012 32.3199 109.628 32.3199C109.236 32.3199 108.884 32.4079 108.572 32.5839C108.268 32.7599 108.024 33.0119 107.84 33.3399C107.664 33.6679 107.576 34.0599 107.576 34.5159V34.6239C107.576 35.0799 107.664 35.4719 107.84 35.7999C108.024 36.1279 108.268 36.3799 108.572 36.5559C108.884 36.7319 109.236 36.8199 109.628 36.8199C110.212 36.8199 110.656 36.6679 110.96 36.3639C111.272 36.0599 111.464 35.6839 111.536 35.2359L112.472 35.4399C112.384 35.8239 112.224 36.1879 111.992 36.5319C111.76 36.8759 111.444 37.1519 111.044 37.3599C110.652 37.5679 110.176 37.6719 109.616 37.6719ZM115.888 37.6719C115.48 37.6719 115.108 37.5999 114.772 37.4559C114.436 37.3119 114.172 37.1039 113.98 36.8319C113.788 36.5599 113.692 36.2279 113.692 35.8359C113.692 35.4359 113.788 35.1079 113.98 34.8519C114.172 34.5879 114.436 34.3919 114.772 34.2639C115.108 34.1279 115.484 34.0599 115.9 34.0599H117.88V33.6279C117.88 33.2119 117.756 32.8839 117.508 32.6439C117.268 32.4039 116.908 32.2839 116.428 32.2839C115.956 32.2839 115.588 32.3999 115.324 32.6319C115.06 32.8559 114.88 33.1599 114.784 33.5439L113.896 33.2559C113.992 32.9279 114.144 32.6319 114.352 32.3679C114.56 32.0959 114.836 31.8799 115.18 31.7199C115.532 31.5519 115.952 31.4679 116.44 31.4679C117.192 31.4679 117.776 31.6639 118.192 32.0559C118.608 32.4399 118.816 32.9839 118.816 33.6879V36.3399C118.816 36.5799 118.928 36.6999 119.152 36.6999H119.692V37.5039H118.864C118.6 37.5039 118.388 37.4319 118.228 37.2879C118.068 37.1359 117.988 36.9359 117.988 36.6879V36.6279H117.844C117.756 36.7799 117.636 36.9399 117.484 37.1079C117.34 37.2679 117.14 37.3999 116.884 37.5039C116.628 37.6159 116.296 37.6719 115.888 37.6719ZM115.996 36.8559C116.556 36.8559 117.008 36.6919 117.352 36.3639C117.704 36.0279 117.88 35.5599 117.88 34.9599V34.8279H115.936C115.56 34.8279 115.248 34.9119 115 35.0799C114.76 35.2399 114.64 35.4839 114.64 35.8119C114.64 36.1399 114.764 36.3959 115.012 36.5799C115.268 36.7639 115.596 36.8559 115.996 36.8559ZM127.324 37.6719C126.716 37.6719 126.24 37.5559 125.896 37.3239C125.56 37.0919 125.316 36.8279 125.164 36.5319H124.996V37.5039H124.072V29.1039H125.02V32.5599H125.188C125.284 32.3759 125.42 32.2039 125.596 32.0439C125.772 31.8759 126 31.7399 126.28 31.6359C126.568 31.5239 126.916 31.4679 127.324 31.4679C127.836 31.4679 128.3 31.5919 128.716 31.8399C129.14 32.0799 129.476 32.4279 129.724 32.8839C129.972 33.3319 130.096 33.8679 130.096 34.4919V34.6479C130.096 35.2719 129.968 35.8119 129.712 36.2679C129.464 36.7239 129.128 37.0719 128.704 37.3119C128.288 37.5519 127.828 37.6719 127.324 37.6719ZM127.072 36.8319C127.68 36.8319 128.172 36.6399 128.548 36.2559C128.932 35.8639 129.124 35.3199 129.124 34.6239V34.5159C129.124 33.8199 128.932 33.2799 128.548 32.8959C128.172 32.5039 127.68 32.3079 127.072 32.3079C126.472 32.3079 125.976 32.5039 125.584 32.8959C125.2 33.2799 125.008 33.8199 125.008 34.5159V34.6239C125.008 35.3199 125.2 35.8639 125.584 36.2559C125.976 36.6399 126.472 36.8319 127.072 36.8319ZM131.795 37.5039V31.6359H132.719V32.3559H132.887C132.991 32.0999 133.151 31.9119 133.367 31.7919C133.583 31.6719 133.867 31.6119 134.219 31.6119H134.915V32.4759H134.159C133.735 32.4759 133.391 32.5959 133.127 32.8359C132.871 33.0679 132.743 33.4319 132.743 33.9279V37.5039H131.795ZM136.318 37.5039V31.6359H137.266V37.5039H136.318ZM136.798 30.7239C136.59 30.7239 136.414 30.6559 136.27 30.5199C136.134 30.3839 136.066 30.2119 136.066 30.0039C136.066 29.7879 136.134 29.6119 136.27 29.4759C136.414 29.3399 136.59 29.2719 136.798 29.2719C137.006 29.2719 137.178 29.3399 137.314 29.4759C137.45 29.6119 137.518 29.7879 137.518 30.0039C137.518 30.2119 137.45 30.3839 137.314 30.5199C137.178 30.6559 137.006 30.7239 136.798 30.7239ZM138.996 37.5039V36.2799L142.728 32.5959V32.4639H139.116V31.6359H143.724V32.8599L139.98 36.5439V36.6879H143.82V37.5039H138.996ZM140.748 30.8439L139.26 29.2119H140.34L141.24 30.2079H141.408L142.32 29.2119H143.388L141.912 30.8439H140.748ZM145.517 37.5039V31.6359H146.441V32.6319H146.609C146.737 32.3519 146.953 32.0999 147.257 31.8759C147.569 31.6439 148.025 31.5279 148.625 31.5279C149.065 31.5279 149.457 31.6199 149.801 31.8039C150.153 31.9879 150.433 32.2599 150.641 32.6199C150.849 32.9799 150.953 33.4239 150.953 33.9519V37.5039H150.005V34.0239C150.005 33.4399 149.857 33.0159 149.561 32.7519C149.273 32.4879 148.881 32.3559 148.385 32.3559C147.817 32.3559 147.353 32.5399 146.993 32.9079C146.641 33.2759 146.465 33.8239 146.465 34.5519V37.5039H145.517ZM152.877 37.5039V31.6359H153.825V37.5039H152.877ZM153.357 30.7239C153.149 30.7239 152.973 30.6559 152.829 30.5199C152.693 30.3839 152.625 30.2119 152.625 30.0039C152.625 29.7879 152.693 29.6119 152.829 29.4759C152.973 29.3399 153.149 29.2719 153.357 29.2719C153.565 29.2719 153.737 29.3399 153.873 29.4759C154.009 29.6119 154.077 29.7879 154.077 30.0039C154.077 30.2119 154.009 30.3839 153.873 30.5199C153.737 30.6559 153.565 30.7239 153.357 30.7239ZM155.818 37.5039V29.1039H156.766V32.5719H156.934C157.014 32.3959 157.134 32.2319 157.294 32.0799C157.462 31.9199 157.674 31.7879 157.93 31.6839C158.194 31.5799 158.526 31.5279 158.926 31.5279C159.366 31.5279 159.758 31.6239 160.102 31.8159C160.454 31.9999 160.734 32.2719 160.942 32.6319C161.15 32.9839 161.254 33.4239 161.254 33.9519V37.5039H160.306V34.0239C160.306 33.4399 160.158 33.0159 159.862 32.7519C159.574 32.4879 159.182 32.3559 158.686 32.3559C158.118 32.3559 157.654 32.5399 157.294 32.9079C156.942 33.2759 156.766 33.8239 156.766 34.5519V37.5039H155.818Z" fill="white"/>
</svg>
