<svg xmlns="http://www.w3.org/2000/svg" fill="none" viewBox="0 0.5 151 36">
<path d="M33.2266 8.31075C32.887 7.97113 32.4907 7.80133 31.9813 7.80133H26.038L28.1323 5.70702C28.8116 5.02779 28.8116 3.95233 28.1323 3.2731C27.4531 2.59386 26.321 2.59386 25.6984 3.2731L20.6042 8.36735C20.2645 8.70697 20.0947 9.15979 20.0947 9.61262C20.0947 10.0654 20.2645 10.5183 20.6042 10.8579C20.774 11.0277 20.9438 11.1409 21.1702 11.2541C21.3966 11.3673 21.623 11.3673 21.8494 11.3673L31.9813 11.3107C32.9436 11.3107 33.736 10.5183 33.736 9.55601C33.736 9.04659 33.5662 8.65037 33.2266 8.31075Z" fill="#0075FF"/>
<path d="M35.4337 20.8191L31.1885 16.6305H34.1884C35.1507 16.6305 35.9431 15.838 35.9431 14.8758C35.9431 13.9135 35.1507 13.1211 34.1884 13.1211H27.0564C26.0942 13.1211 25.3018 13.9135 25.3018 14.8758C25.3018 15.1022 25.3584 15.272 25.415 15.4418C25.4716 15.6682 25.6414 15.8946 25.8112 16.121L32.9997 23.253C33.3394 23.5926 33.7356 23.7624 34.245 23.7624C34.6978 23.7624 35.1507 23.5926 35.4903 23.253C35.8299 22.9134 35.9997 22.4606 35.9997 22.0077C35.9997 21.6115 35.7733 21.1587 35.4337 20.8191Z" fill="#0075FF"/>
<path d="M33.2251 26.1975L28.1309 21.1032C27.8479 20.8202 27.4517 20.6504 27.0554 20.6504C26.9988 20.6504 26.9422 20.6504 26.8856 20.6504C26.7724 20.6504 26.7158 20.6504 26.6592 20.6504H26.6026C26.546 20.6504 26.4894 20.6504 26.4328 20.707C26.3762 20.707 26.3196 20.7636 26.263 20.7636C26.0932 20.8202 25.8668 20.9334 25.7536 21.1032C25.6404 21.2164 25.5272 21.3862 25.414 21.556C25.3007 21.7824 25.2441 22.0655 25.2441 22.3485L25.3007 32.4804C25.3007 33.4426 26.0932 34.2351 27.0554 34.2351C28.0177 34.2351 28.8101 33.4426 28.8101 32.4804V26.5371L30.9044 28.6314C31.244 28.971 31.6969 29.1408 32.1497 29.1408C32.6025 29.1408 33.0553 28.971 33.395 28.6314C33.7346 28.2918 33.9044 27.839 33.9044 27.3861C33.7346 26.9899 33.5648 26.5371 33.2251 26.1975Z" fill="#0075FF"/>
<path d="M21.5654 25.8027C21.3955 25.8027 21.2823 25.8027 21.1125 25.8593C20.8295 25.9159 20.5465 26.0857 20.3201 26.3122L13.1881 33.5007C12.8485 33.8403 12.6787 34.2932 12.6787 34.746C12.6787 35.1988 12.8485 35.6516 13.1881 35.9912C13.5278 36.3309 13.924 36.5007 14.4334 36.5007C14.8862 36.5007 15.339 36.3309 15.6787 35.9912L19.8673 31.746V34.746C19.8673 35.7082 20.6597 36.5007 21.622 36.5007C22.5842 36.5007 23.3766 35.7082 23.3766 34.746V27.5574C23.32 26.5952 22.5276 25.8027 21.5654 25.8027Z" fill="#0075FF"/>
<path d="M15.3399 26.1989C15.1701 26.0291 14.9436 25.9159 14.7738 25.8027C14.5474 25.6895 14.321 25.6895 14.0946 25.6895H3.9627C3.00045 25.6895 2.20801 26.4819 2.20801 27.4441C2.20801 27.897 2.37782 28.3498 2.71743 28.6894C3.05705 29.029 3.50987 29.1988 3.9627 29.1988H9.90599L7.81169 31.2931C7.13245 31.9724 7.13245 33.0478 7.81169 33.7271C8.15131 34.0667 8.60413 34.2365 9.05695 34.2365C9.50977 34.2365 9.9626 34.0667 10.3022 33.7271L15.3965 28.6328C15.7361 28.2932 15.9059 27.8404 15.9059 27.3875C15.8493 26.9913 15.6795 26.5385 15.3399 26.1989Z" fill="#0075FF"/>
<path d="M10.5847 21.5003C10.5281 21.2739 10.3583 21.0475 10.1885 20.8777L2.94335 13.6891C2.66033 13.3495 2.20751 13.1797 1.75469 13.1797C1.30187 13.1797 0.849043 13.3495 0.509426 13.6891C-0.169809 14.3683 -0.169809 15.5004 0.509426 16.123L4.75464 20.3116H1.75469C0.79244 20.3682 3.37379e-08 21.1041 3.37379e-08 22.0663C3.37379e-08 23.0286 0.79244 23.821 1.75469 23.821H8.94325C9.9055 23.821 10.6979 23.0286 10.6979 22.0663C10.6979 21.8965 10.6413 21.6701 10.5847 21.5003Z" fill="#0075FF"/>
<path d="M10.8117 14.5936L10.7551 4.46172C10.7551 3.49947 9.96263 2.70703 9.00039 2.70703C8.03814 2.70703 7.2457 3.49947 7.2457 4.46172V10.405L5.15139 8.31071C4.47216 7.63148 3.39671 7.63148 2.71747 8.31071C2.43446 8.65033 2.26465 9.10315 2.26465 9.55598C2.26465 10.0088 2.43446 10.4616 2.77407 10.8012L7.86833 15.8955C8.20795 16.2351 8.66077 16.4049 9.11359 16.4049C9.56641 16.4049 10.0192 16.2351 10.3589 15.8955C10.4721 15.7823 10.5853 15.6125 10.6985 15.4427C10.7551 15.1597 10.8117 14.8766 10.8117 14.5936Z" fill="#0075FF"/>
<path d="M22.8106 1.00943C22.1314 0.330191 21.0559 0.330191 20.3767 1.00943L16.1315 5.25464V2.25469C16.1315 1.29244 15.339 0.5 14.3768 0.5C13.4145 0.5 12.6787 1.29244 12.6787 2.25469V9.44325C12.6787 10.4055 13.4712 11.1979 14.4334 11.1979C14.6032 11.1979 14.773 11.1413 14.8862 11.1413C15.1692 11.0847 15.4523 10.9149 15.6787 10.6885L22.8106 3.49995C23.4899 2.82072 23.4899 1.68866 22.8106 1.00943Z" fill="#0075FF"/>
<path d="M33.2266 8.31075C32.887 7.97113 32.4907 7.80133 31.9813 7.80133H26.038L28.1323 5.70702C28.8116 5.02779 28.8116 3.95233 28.1323 3.2731C27.4531 2.59386 26.321 2.59386 25.6984 3.2731L20.6042 8.36735C20.2645 8.70697 20.0947 9.15979 20.0947 9.61262C20.0947 10.0654 20.2645 10.5183 20.6042 10.8579C20.774 11.0277 20.9438 11.1409 21.1702 11.2541C21.3966 11.3673 21.623 11.3673 21.8494 11.3673L31.9813 11.3107C32.9436 11.3107 33.736 10.5183 33.736 9.55601C33.736 9.04659 33.5662 8.65037 33.2266 8.31075Z" fill="#0075FF"/>
<path d="M35.4337 20.8191L31.1885 16.6305H34.1884C35.1507 16.6305 35.9431 15.838 35.9431 14.8758C35.9431 13.9135 35.1507 13.1211 34.1884 13.1211H27.0564C26.0942 13.1211 25.3018 13.9135 25.3018 14.8758C25.3018 15.1022 25.3584 15.272 25.415 15.4418C25.4716 15.6682 25.6414 15.8946 25.8112 16.121L32.9997 23.253C33.3394 23.5926 33.7356 23.7624 34.245 23.7624C34.6978 23.7624 35.1507 23.5926 35.4903 23.253C35.8299 22.9134 35.9997 22.4606 35.9997 22.0077C35.9997 21.6115 35.7733 21.1587 35.4337 20.8191Z" fill="#0075FF"/>
<circle cx="18" cy="18.5" r="4" fill="#FF8F33"/>
<path d="M33.2251 26.1975L28.1309 21.1032C27.8479 20.8202 27.4517 20.6504 27.0554 20.6504C26.9988 20.6504 26.9422 20.6504 26.8856 20.6504C26.7724 20.6504 26.7158 20.6504 26.6592 20.6504H26.6026C26.546 20.6504 26.4894 20.6504 26.4328 20.707C26.3762 20.707 26.3196 20.7636 26.263 20.7636C26.0932 20.8202 25.8668 20.9334 25.7536 21.1032C25.6404 21.2164 25.5272 21.3862 25.414 21.556C25.3007 21.7824 25.2441 22.0655 25.2441 22.3485L25.3007 32.4804C25.3007 33.4426 26.0932 34.2351 27.0554 34.2351C28.0177 34.2351 28.8101 33.4426 28.8101 32.4804V26.5371L30.9044 28.6314C31.244 28.971 31.6969 29.1408 32.1497 29.1408C32.6025 29.1408 33.0553 28.971 33.395 28.6314C33.7346 28.2918 33.9044 27.839 33.9044 27.3861C33.7346 26.9899 33.5648 26.5371 33.2251 26.1975Z" fill="#0075FF"/>
<path d="M21.5654 25.8008C21.3955 25.8008 21.2823 25.8008 21.1125 25.8574C20.8295 25.914 20.5465 26.0838 20.3201 26.3102L13.1881 33.4988C12.8485 33.8384 12.6787 34.2912 12.6787 34.744C12.6787 35.1969 12.8485 35.6497 13.1881 35.9893C13.5278 36.3289 13.924 36.4987 14.4334 36.4987C14.8862 36.4987 15.339 36.3289 15.6787 35.9893L19.8673 31.7441V34.744C19.8673 35.7063 20.6597 36.4987 21.622 36.4987C22.5842 36.4987 23.3766 35.7063 23.3766 34.744V27.5555C23.32 26.5932 22.5276 25.8008 21.5654 25.8008Z" fill="#0075FF"/>
<path d="M15.3399 26.1989C15.1701 26.0291 14.9436 25.9159 14.7738 25.8027C14.5474 25.6895 14.321 25.6895 14.0946 25.6895H3.9627C3.00045 25.6895 2.20801 26.4819 2.20801 27.4441C2.20801 27.897 2.37782 28.3498 2.71743 28.6894C3.05705 29.029 3.50987 29.1988 3.9627 29.1988H9.90599L7.81169 31.2931C7.13245 31.9724 7.13245 33.0478 7.81169 33.7271C8.15131 34.0667 8.60413 34.2365 9.05695 34.2365C9.50977 34.2365 9.9626 34.0667 10.3022 33.7271L15.3965 28.6328C15.7361 28.2932 15.9059 27.8404 15.9059 27.3875C15.8493 26.9913 15.6795 26.5385 15.3399 26.1989Z" fill="#0075FF"/>
<path d="M10.5847 21.5003C10.5281 21.2739 10.3583 21.0475 10.1885 20.8777L2.94335 13.6891C2.66033 13.3495 2.20751 13.1797 1.75469 13.1797C1.30187 13.1797 0.849043 13.3495 0.509426 13.6891C-0.169809 14.3683 -0.169809 15.5004 0.509426 16.123L4.75464 20.3116H1.75469C0.79244 20.3682 3.37379e-08 21.1041 3.37379e-08 22.0663C3.37379e-08 23.0286 0.79244 23.821 1.75469 23.821H8.94325C9.9055 23.821 10.6979 23.0286 10.6979 22.0663C10.6979 21.8965 10.6413 21.6701 10.5847 21.5003Z" fill="#0075FF"/>
<path d="M10.8117 14.5936L10.7551 4.46172C10.7551 3.49947 9.96263 2.70703 9.00039 2.70703C8.03814 2.70703 7.2457 3.49947 7.2457 4.46172V10.405L5.15139 8.31071C4.47216 7.63148 3.39671 7.63148 2.71747 8.31071C2.43446 8.65033 2.26465 9.10315 2.26465 9.55598C2.26465 10.0088 2.43446 10.4616 2.77407 10.8012L7.86833 15.8955C8.20795 16.2351 8.66077 16.4049 9.11359 16.4049C9.56641 16.4049 10.0192 16.2351 10.3589 15.8955C10.4721 15.7823 10.5853 15.6125 10.6985 15.4427C10.7551 15.1597 10.8117 14.8766 10.8117 14.5936Z" fill="#0075FF"/>
<path d="M22.8106 1.00943C22.1314 0.330191 21.0559 0.330191 20.3767 1.00943L16.1315 5.25464V2.25469C16.1315 1.29244 15.339 0.5 14.3768 0.5C13.4145 0.5 12.6787 1.29244 12.6787 2.25469V9.44325C12.6787 10.4055 13.4712 11.1979 14.4334 11.1979C14.6032 11.1979 14.773 11.1413 14.8862 11.1413C15.1692 11.0847 15.4523 10.9149 15.6787 10.6885L22.8106 3.49995C23.4899 2.82072 23.4899 1.68866 22.8106 1.00943Z" fill="#0075FF"/>
<path d="M49.021 16V6.2H51.933L54.593 14.992H54.817V6.2H56.315V16H53.403L50.743 7.194H50.519V16H49.021ZM58.3589 16V6.2H64.5329V7.572H59.8709V10.386H64.1409V11.758H59.8709V14.628H64.6029V16H58.3589ZM69.5812 16.196C68.8812 16.196 68.2559 16.0467 67.7052 15.748C67.1546 15.44 66.7206 14.992 66.4032 14.404C66.0859 13.816 65.9272 13.0973 65.9272 12.248V9.952C65.9272 8.67333 66.2772 7.698 66.9772 7.026C67.6772 6.34467 68.6246 6.004 69.8192 6.004C70.9952 6.004 71.9006 6.326 72.5352 6.97C73.1699 7.60467 73.4872 8.45867 73.4872 9.532V9.602H71.9892V9.49C71.9892 9.08867 71.9099 8.72933 71.7512 8.412C71.5926 8.08533 71.3546 7.82867 71.0372 7.642C70.7199 7.45533 70.3139 7.362 69.8192 7.362C69.0726 7.362 68.4892 7.59067 68.0692 8.048C67.6492 8.496 67.4392 9.12133 67.4392 9.924V12.276C67.4392 13.0693 67.6492 13.6993 68.0692 14.166C68.4892 14.6233 69.0772 14.852 69.8332 14.852C70.5799 14.852 71.1259 14.6467 71.4712 14.236C71.8166 13.8253 71.9892 13.2933 71.9892 12.64V12.458H69.3572V11.156H73.4872V16H72.0872V15.006H71.8632C71.7792 15.1833 71.6532 15.3653 71.4852 15.552C71.3266 15.7387 71.0932 15.8927 70.7852 16.014C70.4866 16.1353 70.0852 16.196 69.5812 16.196ZM79.1171 16.196C77.9131 16.196 76.9564 15.86 76.2471 15.188C75.5378 14.5067 75.1831 13.5267 75.1831 12.248V9.952C75.1831 8.67333 75.5378 7.698 76.2471 7.026C76.9564 6.34467 77.9131 6.004 79.1171 6.004C80.3211 6.004 81.2778 6.34467 81.9871 7.026C82.7058 7.698 83.0651 8.67333 83.0651 9.952V12.248C83.0651 13.5267 82.7058 14.5067 81.9871 15.188C81.2778 15.86 80.3211 16.196 79.1171 16.196ZM79.1171 14.838C79.8918 14.838 80.4891 14.614 80.9091 14.166C81.3291 13.7087 81.5391 13.088 81.5391 12.304V9.896C81.5391 9.112 81.3291 8.496 80.9091 8.048C80.4891 7.59067 79.8918 7.362 79.1171 7.362C78.3611 7.362 77.7684 7.59067 77.3391 8.048C76.9098 8.496 76.6951 9.112 76.6951 9.896V12.304C76.6951 13.088 76.9098 13.7087 77.3391 14.166C77.7684 14.614 78.3611 14.838 79.1171 14.838ZM86.6519 16L83.9219 6.2H85.4899L87.8699 15.048H88.0519L90.4179 6.2H91.9859L89.2699 16H86.6519ZM91.9063 16L94.7063 6.2H97.3663L100.152 16H98.5983L97.9543 13.69H94.1183L93.4743 16H91.9063ZM94.4963 12.29H97.5763L96.1483 7.138H95.9243L94.4963 12.29ZM102.847 16V7.572H99.8373V6.2H107.369V7.572H104.359V16H102.847ZM108.74 16V6.2H114.914V7.572H110.252V10.386H114.522V11.758H110.252V14.628H114.984V16H108.74ZM116.56 16V6.2H118.072V14.628H122.79V16H116.56ZM126.863 16.196C125.883 16.196 125.104 15.9253 124.525 15.384C123.947 14.8333 123.657 14.0587 123.657 13.06V12.22H125.169V13.06C125.169 13.5827 125.309 14.0027 125.589 14.32C125.879 14.628 126.294 14.782 126.835 14.782C127.358 14.782 127.745 14.628 127.997 14.32C128.249 14.012 128.375 13.592 128.375 13.06V7.572H126.667V6.2H130.979V7.572H129.887V13.06C129.887 14.0773 129.621 14.8567 129.089 15.398C128.567 15.93 127.825 16.196 126.863 16.196ZM132.597 16V6.2H134.109V16H132.597ZM137.062 16.196C136.735 16.196 136.46 16.0887 136.236 15.874C136.021 15.6593 135.914 15.384 135.914 15.048C135.914 14.712 136.021 14.4413 136.236 14.236C136.46 14.0213 136.735 13.914 137.062 13.914C137.389 13.914 137.659 14.0213 137.874 14.236C138.098 14.4507 138.21 14.7213 138.21 15.048C138.21 15.384 138.098 15.6593 137.874 15.874C137.659 16.0887 137.389 16.196 137.062 16.196ZM140.063 16V9.098H141.477V9.91H141.701C141.813 9.62067 141.99 9.41067 142.233 9.28C142.485 9.14 142.793 9.07 143.157 9.07H143.983V10.372H143.101C142.634 10.372 142.252 10.5027 141.953 10.764C141.654 11.016 141.505 11.408 141.505 11.94V16H140.063ZM148.155 16.196C147.277 16.196 146.549 16 145.971 15.608C145.392 15.216 145.037 14.6233 144.907 13.83L146.251 13.508C146.325 13.8907 146.451 14.194 146.629 14.418C146.806 14.642 147.025 14.8007 147.287 14.894C147.557 14.9873 147.847 15.034 148.155 15.034C148.612 15.034 148.962 14.9453 149.205 14.768C149.457 14.5907 149.583 14.362 149.583 14.082C149.583 13.802 149.466 13.5967 149.233 13.466C148.999 13.3353 148.654 13.228 148.197 13.144L147.721 13.06C147.254 12.976 146.829 12.8547 146.447 12.696C146.064 12.5373 145.761 12.318 145.537 12.038C145.313 11.758 145.201 11.3987 145.201 10.96C145.201 10.3067 145.443 9.80267 145.929 9.448C146.414 9.084 147.058 8.902 147.861 8.902C148.635 8.902 149.27 9.07933 149.765 9.434C150.269 9.77933 150.595 10.2507 150.745 10.848L149.401 11.226C149.317 10.806 149.139 10.512 148.869 10.344C148.598 10.1667 148.262 10.078 147.861 10.078C147.469 10.078 147.161 10.1527 146.937 10.302C146.713 10.442 146.601 10.6427 146.601 10.904C146.601 11.184 146.708 11.3893 146.923 11.52C147.147 11.6507 147.445 11.7487 147.819 11.814L148.309 11.898C148.803 11.982 149.256 12.0987 149.667 12.248C150.077 12.3973 150.399 12.612 150.633 12.892C150.875 13.172 150.997 13.5453 150.997 14.012C150.997 14.7027 150.74 15.2393 150.227 15.622C149.713 16.0047 149.023 16.196 148.155 16.196Z" fill="#071634"/>
<path d="M48.599 32V30.668L53.279 24.644V24.5H48.743V23.6H54.275V24.932L49.595 30.956V31.1H54.371V32H48.599ZM57.7208 32.168C57.3128 32.168 56.9408 32.096 56.6048 31.952C56.2688 31.808 56.0048 31.6 55.8128 31.328C55.6208 31.056 55.5248 30.724 55.5248 30.332C55.5248 29.932 55.6208 29.604 55.8128 29.348C56.0048 29.084 56.2688 28.888 56.6048 28.76C56.9408 28.624 57.3168 28.556 57.7328 28.556H59.7128V28.124C59.7128 27.708 59.5888 27.38 59.3408 27.14C59.1008 26.9 58.7408 26.78 58.2608 26.78C57.7888 26.78 57.4208 26.896 57.1568 27.128C56.8928 27.352 56.7128 27.656 56.6168 28.04L55.7288 27.752C55.8248 27.424 55.9768 27.128 56.1848 26.864C56.3928 26.592 56.6688 26.376 57.0128 26.216C57.3648 26.048 57.7848 25.964 58.2728 25.964C59.0248 25.964 59.6088 26.16 60.0248 26.552C60.4408 26.936 60.6488 27.48 60.6488 28.184V30.836C60.6488 31.076 60.7608 31.196 60.9848 31.196H61.5248V32H60.6968C60.4328 32 60.2208 31.928 60.0608 31.784C59.9008 31.632 59.8208 31.432 59.8208 31.184V31.124H59.6768C59.5888 31.276 59.4688 31.436 59.3168 31.604C59.1728 31.764 58.9728 31.896 58.7168 32C58.4608 32.112 58.1288 32.168 57.7208 32.168ZM57.8288 31.352C58.3888 31.352 58.8408 31.188 59.1848 30.86C59.5368 30.524 59.7128 30.056 59.7128 29.456V29.324H57.7688C57.3928 29.324 57.0808 29.408 56.8328 29.576C56.5928 29.736 56.4728 29.98 56.4728 30.308C56.4728 30.636 56.5968 30.892 56.8448 31.076C57.1008 31.26 57.4288 31.352 57.8288 31.352ZM61.6711 34.4V33.56H62.4871C62.7271 33.56 62.8471 33.44 62.8471 33.2V26.132H63.7951V33.368C63.7951 33.688 63.7031 33.94 63.5191 34.124C63.3431 34.308 63.0871 34.4 62.7511 34.4H61.6711ZM63.3271 25.22C63.1191 25.22 62.9431 25.152 62.7991 25.016C62.6631 24.88 62.5951 24.708 62.5951 24.5C62.5951 24.284 62.6631 24.108 62.7991 23.972C62.9431 23.836 63.1191 23.768 63.3271 23.768C63.5351 23.768 63.7071 23.836 63.8431 23.972C63.9791 24.108 64.0471 24.284 64.0471 24.5C64.0471 24.708 63.9791 24.88 63.8431 25.016C63.7071 25.152 63.5351 25.22 63.3271 25.22ZM68.476 32.168C67.884 32.168 67.364 32.044 66.916 31.796C66.468 31.54 66.12 31.184 65.872 30.728C65.624 30.272 65.5 29.744 65.5 29.144V29C65.5 28.392 65.624 27.86 65.872 27.404C66.12 26.948 66.464 26.596 66.904 26.348C67.344 26.092 67.848 25.964 68.416 25.964C68.968 25.964 69.456 26.084 69.88 26.324C70.304 26.556 70.636 26.892 70.876 27.332C71.116 27.772 71.236 28.288 71.236 28.88V29.312H66.448C66.472 29.944 66.676 30.44 67.06 30.8C67.444 31.152 67.924 31.328 68.5 31.328C69.004 31.328 69.392 31.212 69.664 30.98C69.936 30.748 70.144 30.472 70.288 30.152L71.104 30.548C70.984 30.796 70.816 31.044 70.6 31.292C70.392 31.54 70.116 31.748 69.772 31.916C69.436 32.084 69.004 32.168 68.476 32.168ZM66.46 28.532H70.276C70.244 27.988 70.056 27.564 69.712 27.26C69.376 26.956 68.944 26.804 68.416 26.804C67.88 26.804 67.44 26.956 67.096 27.26C66.752 27.564 66.54 27.988 66.46 28.532ZM75.3736 32.168C74.8696 32.168 74.4056 32.048 73.9816 31.808C73.5576 31.568 73.2216 31.22 72.9736 30.764C72.7256 30.308 72.6016 29.768 72.6016 29.144V28.988C72.6016 28.364 72.7256 27.828 72.9736 27.38C73.2216 26.924 73.5536 26.576 73.9696 26.336C74.3936 26.088 74.8616 25.964 75.3736 25.964C75.7816 25.964 76.1256 26.02 76.4056 26.132C76.6936 26.236 76.9256 26.372 77.1016 26.54C77.2776 26.7 77.4136 26.872 77.5096 27.056H77.6776V23.6H78.6256V32H77.7016V31.028H77.5336C77.3736 31.324 77.1256 31.588 76.7896 31.82C76.4536 32.052 75.9816 32.168 75.3736 32.168ZM75.6256 31.328C76.2336 31.328 76.7256 31.136 77.1016 30.752C77.4856 30.36 77.6776 29.816 77.6776 29.12V29.012C77.6776 28.316 77.4856 27.776 77.1016 27.392C76.7256 27 76.2336 26.804 75.6256 26.804C75.0256 26.804 74.5296 27 74.1376 27.392C73.7536 27.776 73.5616 28.316 73.5616 29.012V29.12C73.5616 29.816 73.7536 30.36 74.1376 30.752C74.5296 31.136 75.0256 31.328 75.6256 31.328ZM80.6122 32V26.132H81.5362V27.128H81.7042C81.8322 26.848 82.0482 26.596 82.3522 26.372C82.6642 26.14 83.1202 26.024 83.7202 26.024C84.1602 26.024 84.5522 26.116 84.8962 26.3C85.2482 26.484 85.5282 26.756 85.7362 27.116C85.9442 27.476 86.0482 27.92 86.0482 28.448V32H85.1002V28.52C85.1002 27.936 84.9522 27.512 84.6562 27.248C84.3682 26.984 83.9762 26.852 83.4802 26.852C82.9122 26.852 82.4482 27.036 82.0882 27.404C81.7362 27.772 81.5602 28.32 81.5602 29.048V32H80.6122ZM87.9716 32V26.132H88.9196V32H87.9716ZM88.4516 25.22C88.2436 25.22 88.0676 25.152 87.9236 25.016C87.7876 24.88 87.7196 24.708 87.7196 24.5C87.7196 24.284 87.7876 24.108 87.9236 23.972C88.0676 23.836 88.2436 23.768 88.4516 23.768C88.6596 23.768 88.8316 23.836 88.9676 23.972C89.1036 24.108 89.1716 24.284 89.1716 24.5C89.1716 24.708 89.1036 24.88 88.9676 25.016C88.8316 25.152 88.6596 25.22 88.4516 25.22ZM93.613 32.168C93.045 32.168 92.533 32.048 92.077 31.808C91.629 31.56 91.273 31.208 91.009 30.752C90.753 30.296 90.625 29.756 90.625 29.132V29C90.625 28.368 90.753 27.828 91.009 27.38C91.273 26.924 91.629 26.576 92.077 26.336C92.533 26.088 93.045 25.964 93.613 25.964C94.173 25.964 94.649 26.068 95.041 26.276C95.441 26.484 95.753 26.76 95.977 27.104C96.209 27.448 96.357 27.816 96.421 28.208L95.497 28.4C95.457 28.112 95.361 27.848 95.209 27.608C95.065 27.368 94.861 27.176 94.597 27.032C94.333 26.888 94.009 26.816 93.625 26.816C93.233 26.816 92.881 26.904 92.569 27.08C92.265 27.256 92.021 27.508 91.837 27.836C91.661 28.164 91.573 28.556 91.573 29.012V29.12C91.573 29.576 91.661 29.968 91.837 30.296C92.021 30.624 92.265 30.876 92.569 31.052C92.881 31.228 93.233 31.316 93.625 31.316C94.209 31.316 94.653 31.164 94.957 30.86C95.269 30.556 95.461 30.18 95.533 29.732L96.469 29.936C96.381 30.32 96.221 30.684 95.989 31.028C95.757 31.372 95.441 31.648 95.041 31.856C94.649 32.064 94.173 32.168 93.613 32.168ZM99.8849 32.168C99.4769 32.168 99.1049 32.096 98.7689 31.952C98.4329 31.808 98.1689 31.6 97.9769 31.328C97.7849 31.056 97.6889 30.724 97.6889 30.332C97.6889 29.932 97.7849 29.604 97.9769 29.348C98.1689 29.084 98.4329 28.888 98.7689 28.76C99.1049 28.624 99.4809 28.556 99.8969 28.556H101.877V28.124C101.877 27.708 101.753 27.38 101.505 27.14C101.265 26.9 100.905 26.78 100.425 26.78C99.9529 26.78 99.5849 26.896 99.3209 27.128C99.0569 27.352 98.8769 27.656 98.7809 28.04L97.8929 27.752C97.9889 27.424 98.1409 27.128 98.3489 26.864C98.5569 26.592 98.8329 26.376 99.1769 26.216C99.5289 26.048 99.9489 25.964 100.437 25.964C101.189 25.964 101.773 26.16 102.189 26.552C102.605 26.936 102.813 27.48 102.813 28.184V30.836C102.813 31.076 102.925 31.196 103.149 31.196H103.689V32H102.861C102.597 32 102.385 31.928 102.225 31.784C102.065 31.632 101.985 31.432 101.985 31.184V31.124H101.841C101.753 31.276 101.633 31.436 101.481 31.604C101.337 31.764 101.137 31.896 100.881 32C100.625 32.112 100.293 32.168 99.8849 32.168ZM99.9929 31.352C100.553 31.352 101.005 31.188 101.349 30.86C101.701 30.524 101.877 30.056 101.877 29.456V29.324H99.9329C99.5569 29.324 99.2449 29.408 98.9969 29.576C98.7569 29.736 98.6369 29.98 98.6369 30.308C98.6369 30.636 98.7609 30.892 99.0089 31.076C99.2649 31.26 99.5929 31.352 99.9929 31.352ZM111.321 32.168C110.713 32.168 110.237 32.052 109.893 31.82C109.557 31.588 109.313 31.324 109.161 31.028H108.993V32H108.069V23.6H109.017V27.056H109.185C109.281 26.872 109.417 26.7 109.593 26.54C109.769 26.372 109.997 26.236 110.277 26.132C110.565 26.02 110.913 25.964 111.321 25.964C111.833 25.964 112.297 26.088 112.713 26.336C113.137 26.576 113.473 26.924 113.721 27.38C113.969 27.828 114.093 28.364 114.093 28.988V29.144C114.093 29.768 113.965 30.308 113.709 30.764C113.461 31.22 113.125 31.568 112.701 31.808C112.285 32.048 111.825 32.168 111.321 32.168ZM111.069 31.328C111.677 31.328 112.169 31.136 112.545 30.752C112.929 30.36 113.121 29.816 113.121 29.12V29.012C113.121 28.316 112.929 27.776 112.545 27.392C112.169 27 111.677 26.804 111.069 26.804C110.469 26.804 109.973 27 109.581 27.392C109.197 27.776 109.005 28.316 109.005 29.012V29.12C109.005 29.816 109.197 30.36 109.581 30.752C109.973 31.136 110.469 31.328 111.069 31.328ZM115.792 32V26.132H116.716V26.852H116.884C116.988 26.596 117.148 26.408 117.364 26.288C117.58 26.168 117.864 26.108 118.216 26.108H118.912V26.972H118.156C117.732 26.972 117.388 27.092 117.124 27.332C116.868 27.564 116.74 27.928 116.74 28.424V32H115.792ZM120.315 32V26.132H121.263V32H120.315ZM120.795 25.22C120.587 25.22 120.411 25.152 120.267 25.016C120.131 24.88 120.063 24.708 120.063 24.5C120.063 24.284 120.131 24.108 120.267 23.972C120.411 23.836 120.587 23.768 120.795 23.768C121.003 23.768 121.175 23.836 121.311 23.972C121.447 24.108 121.515 24.284 121.515 24.5C121.515 24.708 121.447 24.88 121.311 25.016C121.175 25.152 121.003 25.22 120.795 25.22ZM122.993 32V30.776L126.725 27.092V26.96H123.113V26.132H127.721V27.356L123.977 31.04V31.184H127.817V32H122.993ZM124.745 25.34L123.257 23.708H124.337L125.237 24.704H125.405L126.317 23.708H127.385L125.909 25.34H124.745ZM129.515 32V26.132H130.439V27.128H130.607C130.735 26.848 130.951 26.596 131.255 26.372C131.567 26.14 132.023 26.024 132.623 26.024C133.063 26.024 133.455 26.116 133.799 26.3C134.151 26.484 134.431 26.756 134.639 27.116C134.847 27.476 134.951 27.92 134.951 28.448V32H134.003V28.52C134.003 27.936 133.855 27.512 133.559 27.248C133.271 26.984 132.879 26.852 132.383 26.852C131.815 26.852 131.351 27.036 130.991 27.404C130.639 27.772 130.463 28.32 130.463 29.048V32H129.515ZM136.874 32V26.132H137.822V32H136.874ZM137.354 25.22C137.146 25.22 136.97 25.152 136.826 25.016C136.69 24.88 136.622 24.708 136.622 24.5C136.622 24.284 136.69 24.108 136.826 23.972C136.97 23.836 137.146 23.768 137.354 23.768C137.562 23.768 137.734 23.836 137.87 23.972C138.006 24.108 138.074 24.284 138.074 24.5C138.074 24.708 138.006 24.88 137.87 25.016C137.734 25.152 137.562 25.22 137.354 25.22ZM139.815 32V23.6H140.763V27.068H140.931C141.011 26.892 141.131 26.728 141.291 26.576C141.459 26.416 141.671 26.284 141.927 26.18C142.191 26.076 142.523 26.024 142.923 26.024C143.363 26.024 143.755 26.12 144.099 26.312C144.451 26.496 144.731 26.768 144.939 27.128C145.147 27.48 145.251 27.92 145.251 28.448V32H144.303V28.52C144.303 27.936 144.155 27.512 143.859 27.248C143.571 26.984 143.179 26.852 142.683 26.852C142.115 26.852 141.651 27.036 141.291 27.404C140.939 27.772 140.763 28.32 140.763 29.048V32H139.815Z" fill="#071634"/>
</svg>