<svg width="31" height="26" viewBox="0 0 31 26" fill="none" xmlns="http://www.w3.org/2000/svg">
	<path
		d="M27.0078 6.87891C28.1797 6 29.2344 4.94531 30.0547 3.71484C29 4.18359 27.7695 4.53516 26.5391 4.65234C27.8281 3.89062 28.7656 2.71875 29.2344 1.25391C28.0625 1.95703 26.7148 2.48438 25.3672 2.77734C24.1953 1.54688 22.6133 0.84375 20.8555 0.84375C17.457 0.84375 14.7031 3.59766 14.7031 6.99609C14.7031 7.46484 14.7617 7.93359 14.8789 8.40234C9.78125 8.10938 5.21094 5.64844 2.16406 1.95703C1.63672 2.83594 1.34375 3.89062 1.34375 5.0625C1.34375 7.17188 2.39844 9.04688 4.09766 10.1602C3.10156 10.1016 2.10547 9.86719 1.28516 9.39844V9.45703C1.28516 12.4453 3.39453 14.9062 6.20703 15.4922C5.73828 15.6094 5.15234 15.7266 4.625 15.7266C4.21484 15.7266 3.86328 15.668 3.45312 15.6094C4.21484 18.0703 6.5 19.8281 9.19531 19.8867C7.08594 21.5273 4.44922 22.5234 1.57812 22.5234C1.05078 22.5234 0.582031 22.4648 0.113281 22.4062C2.80859 24.1641 6.03125 25.1602 9.54688 25.1602C20.8555 25.1602 27.0078 15.8438 27.0078 7.69922C27.0078 7.40625 27.0078 7.17188 27.0078 6.87891Z"
		fill="#FFFFFF"/>
</svg>
