<svg xmlns="http://www.w3.org/2000/svg" width="1000" height="1000" viewBox="0 20 140 100" fill="none">
<path d="M118.134 27.7695C116.926 26.562 115.517 25.9583 113.706 25.9583H92.5748L100.021 18.512C102.436 16.0969 102.436 12.2732 100.021 9.85814C97.6061 7.44312 93.581 7.44312 91.3673 9.85814L73.2546 27.9708C72.0471 29.1783 71.4434 30.7883 71.4434 32.3983C71.4434 34.0083 72.0471 35.6183 73.2546 36.8258C73.8584 37.4296 74.4621 37.8321 75.2671 38.2346C76.0721 38.6371 76.8771 38.6371 77.6822 38.6371L113.706 38.4359C117.127 38.4359 119.945 35.6183 119.945 32.1971C119.945 30.3858 119.341 28.977 118.134 27.7695Z" fill="#0075FF"/>
<path d="M125.983 72.2452L110.889 57.3526H121.555C124.977 57.3526 127.794 54.5351 127.794 51.1138C127.794 47.6925 124.977 44.875 121.555 44.875H96.1978C92.7765 44.875 89.959 47.6925 89.959 51.1138C89.959 51.9188 90.1602 52.5226 90.3615 53.1263C90.5627 53.9313 91.1665 54.7363 91.7702 55.5413L117.329 80.899C118.537 82.1065 119.945 82.7103 121.757 82.7103C123.367 82.7103 124.977 82.1065 126.184 80.899C127.392 79.6915 127.996 78.0815 127.996 76.4715C127.996 75.0627 127.19 73.4527 125.983 72.2452Z" fill="#0075FF"/>
<path d="M118.132 91.3652L100.02 73.2526C99.0134 72.2463 97.6047 71.6426 96.1959 71.6426C95.9947 71.6426 95.7934 71.6426 95.5922 71.6426C95.1897 71.6426 94.9884 71.6426 94.7871 71.6426H94.5859C94.3846 71.6426 94.1834 71.6426 93.9821 71.8438C93.7809 71.8438 93.5796 72.0451 93.3784 72.0451C92.7746 72.2463 91.9696 72.6488 91.5671 73.2526C91.1646 73.6551 90.7621 74.2588 90.3596 74.8626C89.9571 75.6676 89.7559 76.6739 89.7559 77.6801L89.9571 113.704C89.9571 117.125 92.7746 119.943 96.1959 119.943C99.6172 119.943 102.435 117.125 102.435 113.704V92.5727L109.881 100.019C111.089 101.227 112.699 101.83 114.309 101.83C115.919 101.83 117.529 101.227 118.736 100.019C119.944 98.8115 120.547 97.2015 120.547 95.5915C119.944 94.1827 119.34 92.5727 118.132 91.3652Z" fill="#0075FF"/>
<path d="M76.6805 89.9648C76.0767 89.9648 75.6742 89.9648 75.0705 90.1661C74.0642 90.3674 73.0579 90.9711 72.2529 91.7761L46.8952 117.335C45.6877 118.543 45.084 120.153 45.084 121.763C45.084 123.373 45.6877 124.983 46.8952 126.19C48.1028 127.398 49.5115 128.001 51.3228 128.001C52.9328 128.001 54.5428 127.398 55.7503 126.19L70.6429 111.096V121.763C70.6429 125.184 73.4604 128.001 76.8817 128.001C80.303 128.001 83.1205 125.184 83.1205 121.763V96.2036C82.9193 92.7824 80.1017 89.9648 76.6805 89.9648Z" fill="#0075FF"/>
<path d="M54.538 91.3699C53.9342 90.7661 53.1292 90.3636 52.5255 89.9611C51.7205 89.5586 50.9155 89.5586 50.1105 89.5586H14.0865C10.6652 89.5586 7.84766 92.3761 7.84766 95.7974C7.84766 97.4074 8.45141 99.0174 9.65892 100.225C10.8664 101.432 12.4764 102.036 14.0865 102.036H35.2179L27.7716 109.482C25.3565 111.898 25.3565 115.721 27.7716 118.136C28.9791 119.344 30.5891 119.948 32.1991 119.948C33.8091 119.948 35.4191 119.344 36.6266 118.136L54.7393 100.024C55.9468 98.8162 56.5505 97.2062 56.5505 95.5961C56.3493 94.1874 55.7455 92.5774 54.538 91.3699Z" fill="#0075FF"/>
<path d="M37.634 74.668C37.4328 73.8629 36.829 73.0579 36.2253 72.4542L10.4651 46.8952C9.45882 45.6877 7.84881 45.084 6.2388 45.084C4.62878 45.084 3.01877 45.6877 1.81126 46.8952C-0.603754 49.3103 -0.603754 53.3353 1.81126 55.5491L16.9051 70.4417H6.2388C2.81752 70.6429 1.19955e-07 73.2592 1.19955e-07 76.6805C1.19955e-07 80.1017 2.81752 82.9193 6.2388 82.9193H31.7977C35.219 82.9193 38.0365 80.1017 38.0365 76.6805C38.0365 76.0767 37.8353 75.2717 37.634 74.668Z" fill="#0075FF"/>
<path d="M38.4378 50.1105L38.2365 14.0865C38.2365 10.6652 35.419 7.84766 31.9978 7.84766C28.5765 7.84766 25.759 10.6652 25.759 14.0865V35.2179L18.3127 27.7716C15.8976 25.3565 12.0739 25.3565 9.65884 27.7716C8.65258 28.9791 8.04883 30.5891 8.04883 32.1991C8.04883 33.8091 8.65258 35.4191 9.86009 36.6266L27.9727 54.7393C29.1802 55.9468 30.7902 56.5505 32.4003 56.5505C34.0103 56.5505 35.6203 55.9468 36.8278 54.7393C37.2303 54.3367 37.6328 53.733 38.0353 53.1292C38.2365 52.123 38.4378 51.1167 38.4378 50.1105Z" fill="#0075FF"/>
<path d="M81.108 1.81126C78.693 -0.603754 74.8692 -0.603754 72.4542 1.81126L57.3603 16.9051V6.2388C57.3603 2.81752 54.5428 1.19955e-07 51.1215 1.19955e-07C47.7003 1.19955e-07 45.084 2.81752 45.084 6.2388V31.7977C45.084 35.219 47.9015 38.0365 51.3228 38.0365C51.9265 38.0365 52.5303 37.8353 52.9328 37.8353C53.939 37.634 54.9453 37.0303 55.7503 36.2253L81.108 10.6663C83.523 8.25131 83.523 4.22628 81.108 1.81126Z" fill="#0075FF"/>
<path d="M118.134 27.7695C116.926 26.562 115.517 25.9583 113.706 25.9583H92.5748L100.021 18.512C102.436 16.0969 102.436 12.2732 100.021 9.85814C97.6061 7.44312 93.581 7.44312 91.3673 9.85814L73.2546 27.9708C72.0471 29.1783 71.4434 30.7883 71.4434 32.3983C71.4434 34.0083 72.0471 35.6183 73.2546 36.8258C73.8584 37.4296 74.4621 37.8321 75.2671 38.2346C76.0721 38.6371 76.8771 38.6371 77.6822 38.6371L113.706 38.4359C117.127 38.4359 119.945 35.6183 119.945 32.1971C119.945 30.3858 119.341 28.977 118.134 27.7695Z" fill="#0075FF"/>
<path d="M125.983 72.2452L110.889 57.3526H121.555C124.977 57.3526 127.794 54.5351 127.794 51.1138C127.794 47.6925 124.977 44.875 121.555 44.875H96.1978C92.7765 44.875 89.959 47.6925 89.959 51.1138C89.959 51.9188 90.1602 52.5226 90.3615 53.1263C90.5627 53.9313 91.1665 54.7363 91.7702 55.5413L117.329 80.899C118.537 82.1065 119.945 82.7103 121.757 82.7103C123.367 82.7103 124.977 82.1065 126.184 80.899C127.392 79.6915 127.996 78.0815 127.996 76.4715C127.996 75.0627 127.19 73.4527 125.983 72.2452Z" fill="#0075FF"/>
<circle cx="63.9994" cy="63.9994" r="14.222" fill="#FF8F33"/>
<path d="M118.132 91.3652L100.02 73.2526C99.0134 72.2463 97.6047 71.6426 96.1959 71.6426C95.9947 71.6426 95.7934 71.6426 95.5922 71.6426C95.1897 71.6426 94.9884 71.6426 94.7871 71.6426H94.5859C94.3846 71.6426 94.1834 71.6426 93.9821 71.8438C93.7809 71.8438 93.5796 72.0451 93.3784 72.0451C92.7746 72.2463 91.9696 72.6488 91.5671 73.2526C91.1646 73.6551 90.7621 74.2588 90.3596 74.8626C89.9571 75.6676 89.7559 76.6739 89.7559 77.6801L89.9571 113.704C89.9571 117.125 92.7746 119.943 96.1959 119.943C99.6172 119.943 102.435 117.125 102.435 113.704V92.5727L109.881 100.019C111.089 101.227 112.699 101.83 114.309 101.83C115.919 101.83 117.529 101.227 118.736 100.019C119.944 98.8115 120.547 97.2015 120.547 95.5915C119.944 94.1827 119.34 92.5727 118.132 91.3652Z" fill="#0075FF"/>
<path d="M76.6805 89.959C76.0767 89.959 75.6742 89.959 75.0705 90.1602C74.0642 90.3615 73.0579 90.9652 72.2529 91.7703L46.8952 117.329C45.6877 118.537 45.084 120.147 45.084 121.757C45.084 123.367 45.6877 124.977 46.8952 126.184C48.1028 127.392 49.5115 127.996 51.3228 127.996C52.9328 127.996 54.5428 127.392 55.7503 126.184L70.6429 111.09V121.757C70.6429 125.178 73.4604 127.996 76.8817 127.996C80.303 127.996 83.1205 125.178 83.1205 121.757V96.1978C82.9193 92.7765 80.1017 89.959 76.6805 89.959Z" fill="#0075FF"/>
<path d="M54.538 91.3699C53.9342 90.7661 53.1292 90.3636 52.5255 89.9611C51.7205 89.5586 50.9155 89.5586 50.1105 89.5586H14.0865C10.6652 89.5586 7.84766 92.3761 7.84766 95.7974C7.84766 97.4074 8.45141 99.0174 9.65892 100.225C10.8664 101.432 12.4764 102.036 14.0865 102.036H35.2179L27.7716 109.482C25.3565 111.898 25.3565 115.721 27.7716 118.136C28.9791 119.344 30.5891 119.948 32.1991 119.948C33.8091 119.948 35.4191 119.344 36.6266 118.136L54.7393 100.024C55.9468 98.8162 56.5505 97.2062 56.5505 95.5961C56.3493 94.1874 55.7455 92.5774 54.538 91.3699Z" fill="#0075FF"/>
<path d="M37.634 74.668C37.4328 73.8629 36.829 73.0579 36.2253 72.4542L10.4651 46.8952C9.45882 45.6877 7.84881 45.084 6.2388 45.084C4.62878 45.084 3.01877 45.6877 1.81126 46.8952C-0.603754 49.3103 -0.603754 53.3353 1.81126 55.5491L16.9051 70.4417H6.2388C2.81752 70.6429 1.19955e-07 73.2592 1.19955e-07 76.6805C1.19955e-07 80.1017 2.81752 82.9193 6.2388 82.9193H31.7977C35.219 82.9193 38.0365 80.1017 38.0365 76.6805C38.0365 76.0767 37.8353 75.2717 37.634 74.668Z" fill="#0075FF"/>
<path d="M38.4378 50.1105L38.2365 14.0865C38.2365 10.6652 35.419 7.84766 31.9978 7.84766C28.5765 7.84766 25.759 10.6652 25.759 14.0865V35.2179L18.3127 27.7716C15.8976 25.3565 12.0739 25.3565 9.65884 27.7716C8.65258 28.9791 8.04883 30.5891 8.04883 32.1991C8.04883 33.8091 8.65258 35.4191 9.86009 36.6266L27.9727 54.7393C29.1802 55.9468 30.7902 56.5505 32.4003 56.5505C34.0103 56.5505 35.6203 55.9468 36.8278 54.7393C37.2303 54.3367 37.6328 53.733 38.0353 53.1292C38.2365 52.123 38.4378 51.1167 38.4378 50.1105Z" fill="#0075FF"/>
<path d="M81.108 1.81126C78.693 -0.603754 74.8692 -0.603754 72.4542 1.81126L57.3603 16.9051V6.2388C57.3603 2.81752 54.5428 1.19955e-07 51.1215 1.19955e-07C47.7003 1.19955e-07 45.084 2.81752 45.084 6.2388V31.7977C45.084 35.219 47.9015 38.0365 51.3228 38.0365C51.9265 38.0365 52.5303 37.8353 52.9328 37.8353C53.939 37.634 54.9453 37.0303 55.7503 36.2253L81.108 10.6663C83.523 8.25131 83.523 4.22628 81.108 1.81126Z" fill="#0075FF"/>

</svg>
