<svg width="128" height="128" viewBox="0 0 128 128" fill="none" xmlns="http://www.w3.org/2000/svg">
<path d="M118.136 27.7718C116.929 26.5642 115.52 25.9605 113.709 25.9605H92.577L100.023 18.5141C102.439 16.099 102.439 12.2752 100.023 9.86012C97.6084 7.44506 93.5833 7.44506 91.3695 9.86012L73.2566 27.973C72.0491 29.1806 71.4453 30.7906 71.4453 32.4006C71.4453 34.0107 72.0491 35.6207 73.2566 36.8282C73.8604 37.432 74.4641 37.8345 75.2692 38.237C76.0742 38.6395 76.8792 38.6395 77.6842 38.6395L113.709 38.4383C117.13 38.4383 119.948 35.6207 119.948 32.1994C119.948 30.3881 119.344 28.9793 118.136 27.7718Z" fill="#0075FF"/>
<path d="M125.984 72.2456L110.889 57.3528H121.556C124.977 57.3528 127.795 54.5352 127.795 51.1139C127.795 47.6926 124.977 44.875 121.556 44.875H96.1979C92.7765 44.875 89.959 47.6926 89.959 51.1139C89.959 51.9189 90.1602 52.5227 90.3615 53.1264C90.5627 53.9315 91.1665 54.7365 91.7703 55.5415L117.33 80.8996C118.537 82.1071 119.946 82.7109 121.757 82.7109C123.367 82.7109 124.977 82.1071 126.185 80.8996C127.392 79.692 127.996 78.082 127.996 76.472C127.996 75.0632 127.191 73.4531 125.984 72.2456Z" fill="#0075FF"/>
<circle cx="63.9996" cy="63.9996" r="14.2222" fill="#FF8F33"/>
<path d="M118.135 91.3694L100.022 73.2565C99.0155 72.2502 97.6067 71.6465 96.198 71.6465C95.9967 71.6465 95.7955 71.6465 95.5942 71.6465C95.1917 71.6465 94.9904 71.6465 94.7892 71.6465H94.5879C94.3867 71.6465 94.1854 71.6465 93.9842 71.8477C93.7829 71.8477 93.5817 72.049 93.3804 72.049C92.7766 72.2502 91.9716 72.6528 91.5691 73.2565C91.1666 73.659 90.7641 74.2628 90.3616 74.8666C89.9591 75.6716 89.7578 76.6778 89.7578 77.6841L89.9591 113.709C89.9591 117.13 92.7766 119.948 96.198 119.948C99.6193 119.948 102.437 117.13 102.437 113.709V92.577L109.883 100.023C111.091 101.231 112.701 101.835 114.311 101.835C115.921 101.835 117.531 101.231 118.738 100.023C119.946 98.8158 120.55 97.2058 120.55 95.5958C119.946 94.187 119.342 92.577 118.135 91.3694Z" fill="#0075FF"/>
<path d="M76.6809 89.959C76.0772 89.959 75.6747 89.959 75.0709 90.1602C74.0646 90.3615 73.0584 90.9653 72.2534 91.7703L46.8953 117.33C45.6877 118.537 45.084 120.147 45.084 121.757C45.084 123.367 45.6877 124.977 46.8953 126.185C48.1028 127.392 49.5116 127.996 51.3229 127.996C52.9329 127.996 54.543 127.392 55.7505 126.185L70.6433 111.091V121.757C70.6433 125.179 73.4609 127.996 76.8822 127.996C80.3035 127.996 83.1211 125.179 83.1211 121.757V96.1979C82.9198 92.7766 80.1023 89.959 76.6809 89.959Z" fill="#0075FF"/>
<path d="M54.5387 91.3738C53.935 90.77 53.1299 90.3675 52.5262 89.965C51.7212 89.5625 50.9161 89.5625 50.1111 89.5625H14.0865C10.6652 89.5625 7.84766 92.3801 7.84766 95.8014C7.84766 97.4114 8.45142 99.0215 9.65895 100.229C10.8665 101.437 12.4765 102.04 14.0865 102.04H35.2183L27.7719 109.487C25.3568 111.902 25.3568 115.726 27.7719 118.141C28.9794 119.348 30.5894 119.952 32.1995 119.952C33.8095 119.952 35.4195 119.348 36.6271 118.141L54.74 100.028C55.9475 98.8202 56.5513 97.2102 56.5513 95.6001C56.35 94.1914 55.7462 92.5813 54.5387 91.3738Z" fill="#0075FF"/>
<path d="M37.6346 74.6684C37.4333 73.8634 36.8296 73.0584 36.2258 72.4546L10.4652 46.8953C9.45896 45.6877 7.84893 45.084 6.23889 45.084C4.62885 45.084 3.01882 45.6877 1.81129 46.8953C-0.603764 49.3103 -0.603764 53.3354 1.81129 55.5492L16.9054 70.4421H6.23889C2.81756 70.6433 1.19957e-07 73.2596 1.19957e-07 76.681C1.19957e-07 80.1023 2.81756 82.9198 6.23889 82.9198H31.7982C35.2195 82.9198 38.0371 80.1023 38.0371 76.681C38.0371 76.0772 37.8359 75.2722 37.6346 74.6684Z" fill="#0075FF"/>
<path d="M38.4383 50.1111L38.237 14.0865C38.237 10.6652 35.4194 7.84766 31.9981 7.84766C28.5768 7.84766 25.7592 10.6652 25.7592 14.0865V35.2183L18.3128 27.7719C15.8978 25.3568 12.0739 25.3568 9.65886 27.7719C8.65259 28.9794 8.04883 30.5894 8.04883 32.1995C8.04883 33.8095 8.65259 35.4195 9.86012 36.6271L27.973 54.74C29.1806 55.9475 30.7906 56.5513 32.4006 56.5513C34.0107 56.5513 35.6207 55.9475 36.8282 54.74C37.2307 54.3375 37.6332 53.7337 38.0358 53.1299C38.237 52.1237 38.4383 51.1174 38.4383 50.1111Z" fill="#0075FF"/>
<path d="M81.1086 1.81129C78.6935 -0.603764 74.8697 -0.603764 72.4546 1.81129L57.3605 16.9054V6.23889C57.3605 2.81756 54.5429 1.19957e-07 51.1216 1.19957e-07C47.7003 1.19957e-07 45.084 2.81756 45.084 6.23889V31.7982C45.084 35.2195 47.9015 38.0371 51.3229 38.0371C51.9266 38.0371 52.5304 37.8359 52.9329 37.8359C53.9392 37.6346 54.9455 37.0308 55.7505 36.2258L81.1086 10.6665C83.5236 8.25144 83.5236 4.22635 81.1086 1.81129Z" fill="#0075FF"/>
</svg>
